<svg width="48" height="48" viewBox="0 0 48 48" fill="none" xmlns="http://www.w3.org/2000/svg">
<rect width="48" height="48" fill="#F44336"/>
<path d="M25.2375 17.3789C26.4796 17.3789 26.8311 21.3749 27.7858 22.3976C28.7405 23.4203 30.5727 24.0248 30.5727 26.7622C30.5787 28.335 30.2806 29.3981 29.8776 30.3662C29.4772 31.328 28.9764 32.2433 28.6434 33.233C27.8526 35.5837 27.953 38.259 27.7858 40.7153C27.7235 41.6299 27.3247 44.8003 25.6405 43.8109C25.0787 43.4807 25.0135 42.7648 24.9752 42.1857C24.8062 39.6357 24.9383 37.0095 25.2375 34.4753C25.3543 33.486 25.5137 32.5874 25.7409 32.0476C26.4331 30.4033 27.7788 28.7148 27.5189 26.8432C27.2745 25.0847 25.9143 24.025 24.8424 24.0248C23.5093 24.0248 21.4391 27.4164 20.4242 28.7547C19.4094 30.093 18.0563 31.713 17.0414 31.0968C16.0266 30.4805 18.3945 27.0092 19.0711 26.078C19.7477 25.1468 21.4197 22.9087 22.7744 21.567C23.5094 20.839 23.635 20.161 23.7178 19.3766C23.7178 19.3766 23.9953 17.3789 25.2375 17.3789Z" fill="white"/>
<path fill-rule="evenodd" clip-rule="evenodd" d="M18.8238 4.60199C23.7807 3.95063 37 3.661 37 4.60199C37 7.49773 30.3321 11.374 28.8813 13.6775C27.4304 15.9811 25.8116 18.5081 23.7038 18.3826C21.596 18.2571 21.041 17.4685 20.2199 17.0319C19.9364 16.8811 19.6165 16.6579 19.2797 16.696C18.028 16.8375 13.3203 19.3864 13.3203 19.3864C12.6695 19.721 12.1193 21.5857 11.2906 20.3901C10.462 19.1946 11.5786 9.89368 12.4751 8.11641C13.3867 6.31014 15.8031 4.99894 18.8238 4.60199ZM17.8586 7.96611C16.8937 7.97962 15.4541 8.76855 14.9845 9.60831C14.8471 9.85399 14.6797 10.3698 14.5147 11.078C14.146 12.6606 13.846 14.3505 13.8639 15.9811C15.0899 15.5739 16.8173 14.7569 17.5969 13.6775C17.7896 13.4105 17.7609 12.908 17.7852 12.598C17.9063 11.0587 17.8657 9.50832 17.8586 7.96611ZM23.7038 7.29499C23.0164 7.2444 21.465 7.21328 21.0141 7.8792C20.9343 7.99727 20.8182 8.32152 20.7174 8.86007C20.527 9.87774 20.4473 11.3607 20.5456 12.4797C20.5962 13.0554 20.6883 13.4813 20.7974 13.7161C21.26 14.7119 22.9408 15.6424 24.0434 15.2681C25.96 14.6172 25.4401 10.855 25.234 9.47108C25.147 8.88645 25.0166 7.72788 24.3857 7.42503C24.2866 7.37753 24.0563 7.32094 23.7038 7.29499ZM31.9258 6.96236C32.2641 6.4997 28.4753 6.4539 27.8028 6.96236C27.2963 7.69275 27.6772 9.38721 28.04 10.103C28.77 9.59881 28.8563 9.52924 29.5578 8.86007C30.2593 8.19091 31.5875 7.42503 31.9258 6.96236Z" fill="white"/>
</svg>
