<svg width="120" height="28" viewBox="0 0 120 28" fill="none" xmlns="http://www.w3.org/2000/svg">
<path d="M33.2 20H30.4V6H33.2V20ZM38.9055 20H36.1055V9.8H38.9055V20ZM39.0055 7.1C39.0055 7.5 38.8655 7.85333 38.5855 8.16C38.3188 8.45333 37.9588 8.6 37.5055 8.6C37.0521 8.6 36.6855 8.45333 36.4055 8.16C36.1388 7.85333 36.0055 7.5 36.0055 7.1C36.0055 6.7 36.1388 6.35333 36.4055 6.06C36.6855 5.75333 37.0521 5.6 37.5055 5.6C37.9455 5.6 38.3055 5.75333 38.5855 6.06C38.8655 6.35333 39.0055 6.7 39.0055 7.1ZM44.6063 20H41.8063V6H44.6063V20ZM55.6117 19.6H53.0117C51.1051 19.6 49.6917 19.26 48.7717 18.58C47.8651 17.8867 47.4117 16.86 47.4117 15.5V9.6H50.2117V15.5C50.2117 16.46 50.4517 17.1533 50.9317 17.58C51.4117 17.9933 52.1051 18.2 53.0117 18.2H55.6117V9.6H58.4117V19.8C58.4117 20.4267 58.2917 20.9933 58.0517 21.5C57.8117 22.02 57.4517 22.4667 56.9717 22.84C56.5051 23.2133 55.9117 23.5 55.1917 23.7C54.4851 23.9 53.6584 24 52.7117 24C52.3917 24 52.0451 23.9733 51.6717 23.92C51.3117 23.88 50.9451 23.8067 50.5717 23.7C50.1984 23.6067 49.8317 23.48 49.4717 23.32C49.1251 23.1733 48.8051 23 48.5117 22.8L49.3117 21.6C49.7651 21.9067 50.2717 22.1467 50.8317 22.32C51.3917 22.5067 51.9517 22.6 52.5117 22.6C53.5117 22.6 54.2784 22.3733 54.8117 21.92C55.3451 21.4667 55.6117 20.76 55.6117 19.8V19.6ZM69.1203 11H66.7203C65.8136 11 65.1203 11.2467 64.6403 11.74C64.1603 12.22 63.9203 12.94 63.9203 13.9V20H61.1203V13.9C61.1203 12.54 61.547 11.4867 62.4003 10.74C63.267 9.98 64.507 9.6 66.1203 9.6H69.1203V11ZM75.707 19.1C76.1337 19.1 76.5337 19.02 76.907 18.86C77.2804 18.7 77.607 18.4533 77.887 18.12C78.167 17.7733 78.387 17.3267 78.547 16.78C78.7204 16.2333 78.807 15.5733 78.807 14.8C78.807 14.0267 78.7204 13.3667 78.547 12.82C78.387 12.2733 78.167 11.8333 77.887 11.5C77.607 11.1533 77.2804 10.9 76.907 10.74C76.5337 10.58 76.1337 10.5 75.707 10.5C75.2804 10.5 74.8804 10.58 74.507 10.74C74.1337 10.9 73.807 11.1533 73.527 11.5C73.247 11.8333 73.0204 12.2733 72.847 12.82C72.687 13.3667 72.607 14.0267 72.607 14.8C72.607 15.5733 72.687 16.2333 72.847 16.78C73.0204 17.3267 73.247 17.7733 73.527 18.12C73.807 18.4533 74.1337 18.7 74.507 18.86C74.8804 19.02 75.2804 19.1 75.707 19.1ZM75.707 9.2C76.6004 9.2 77.4204 9.32667 78.167 9.58C78.927 9.82 79.5737 10.18 80.107 10.66C80.6404 11.1267 81.0537 11.7133 81.347 12.42C81.6537 13.1133 81.807 13.9067 81.807 14.8C81.807 15.7067 81.6537 16.5067 81.347 17.2C81.0537 17.8933 80.6404 18.48 80.107 18.96C79.5737 19.4267 78.927 19.78 78.167 20.02C77.4204 20.2733 76.6004 20.4 75.707 20.4C74.8004 20.4 73.9737 20.2733 73.227 20.02C72.4804 19.78 71.8404 19.4267 71.307 18.96C70.7737 18.48 70.3537 17.8933 70.047 17.2C69.7537 16.5067 69.607 15.7067 69.607 14.8C69.607 13.9067 69.7537 13.1133 70.047 12.42C70.3537 11.7133 70.7737 11.1267 71.307 10.66C71.8404 10.18 72.4804 9.82 73.227 9.58C73.9737 9.32667 74.8004 9.2 75.707 9.2ZM89.7109 11C88.7509 11 87.9909 11.3 87.4309 11.9C86.8843 12.4867 86.6109 13.3867 86.6109 14.6C86.6109 15.8133 86.8843 16.72 87.4309 17.32C87.9909 17.9067 88.7509 18.2 89.7109 18.2H92.2109V11H89.7109ZM95.0109 19.8C95.0109 20.4267 94.8909 20.9933 94.6509 21.5C94.4109 22.02 94.0509 22.4667 93.5709 22.84C93.1043 23.2133 92.5109 23.5 91.7909 23.7C91.0843 23.9 90.2576 24 89.3109 24C88.9909 24 88.6443 23.9733 88.2709 23.92C87.9109 23.88 87.5443 23.8067 87.1709 23.7C86.7976 23.6067 86.4309 23.48 86.0709 23.32C85.7243 23.1733 85.4043 23 85.1109 22.8L85.8109 21.6C86.2643 21.9067 86.7776 22.1467 87.3509 22.32C87.9243 22.5067 88.5109 22.6 89.1109 22.6C90.1109 22.6 90.8776 22.3733 91.4109 21.92C91.9443 21.4667 92.2109 20.76 92.2109 19.8V19.6H89.7109C88.7909 19.6 87.9509 19.48 87.1909 19.24C86.4443 19 85.8043 18.66 85.2709 18.22C84.7376 17.78 84.3243 17.2533 84.0309 16.64C83.7509 16.0267 83.6109 15.3467 83.6109 14.6C83.6109 13.8533 83.7509 13.1733 84.0309 12.56C84.3243 11.9467 84.7376 11.42 85.2709 10.98C85.8043 10.54 86.4443 10.2 87.1909 9.96C87.9509 9.72 88.7909 9.6 89.7109 9.6H95.0109V19.8ZM103.802 19C104.456 19 105.062 18.8867 105.622 18.66C106.196 18.4333 106.756 18.1133 107.302 17.7L108.102 18.9C107.849 19.1267 107.549 19.3333 107.202 19.52C106.869 19.7067 106.502 19.8667 106.102 20C105.716 20.12 105.309 20.2133 104.882 20.28C104.456 20.36 104.029 20.4 103.602 20.4C102.656 20.4 101.789 20.2733 101.002 20.02C100.229 19.78 99.569 19.4267 99.0223 18.96C98.4757 18.48 98.049 17.8933 97.7423 17.2C97.449 16.5067 97.3023 15.7067 97.3023 14.8C97.3023 13.9067 97.4423 13.1133 97.7223 12.42C98.0157 11.7133 98.4157 11.1267 98.9223 10.66C99.4423 10.18 100.056 9.82 100.762 9.58C101.469 9.32667 102.249 9.2 103.102 9.2C103.902 9.2 104.656 9.32 105.362 9.56C106.069 9.8 106.682 10.1533 107.202 10.62C107.722 11.0733 108.136 11.6267 108.442 12.28C108.749 12.9333 108.902 13.6733 108.902 14.5V15.9H100.362C100.522 17.0067 100.902 17.8 101.502 18.28C102.116 18.76 102.882 19 103.802 19ZM103.102 10.5C102.716 10.5 102.356 10.5733 102.022 10.72C101.689 10.8667 101.396 11.1 101.142 11.42C100.902 11.74 100.702 12.1533 100.542 12.66C100.396 13.1667 100.316 13.78 100.302 14.5H105.902C105.902 13.8067 105.822 13.2067 105.662 12.7C105.502 12.1933 105.289 11.78 105.022 11.46C104.769 11.1267 104.469 10.8867 104.122 10.74C103.789 10.58 103.449 10.5 103.102 10.5ZM119.101 11H116.701C115.794 11 115.101 11.2467 114.621 11.74C114.141 12.22 113.901 12.94 113.901 13.9V20H111.101V13.9C111.101 12.54 111.527 11.4867 112.381 10.74C113.247 9.98 114.487 9.6 116.101 9.6H119.101V11Z" fill="#EEEEEE"/>
<path d="M10 22.4C9.41567 22.4 8.91542 22.1958 8.49925 21.7875C8.08308 21.3792 7.875 20.883 7.875 20.299C7.875 19.7148 8.08308 19.2148 8.49925 18.799C8.91542 18.383 9.41567 18.175 10 18.175L10.6187 17.5815C10.7562 17.4438 10.918 17.3333 11.104 17.25C11.2898 17.1667 11.4802 17.125 11.675 17.125C12.0917 17.125 12.4417 17.2708 12.725 17.5625C13.0083 17.8542 13.15 18.2061 13.15 18.6182V19.075C13.15 19.4083 13.2708 19.6958 13.5125 19.9375C13.7542 20.1792 14.0417 20.3 14.375 20.3C14.6383 20.3 14.8754 20.2204 15.0862 20.0612C15.2969 19.9019 15.4462 19.6984 15.534 19.4507L15.85 18.575C16 18.1417 16.2503 17.7914 16.601 17.5242C16.9517 17.2572 17.3549 17.1237 17.8107 17.1237C18.0036 16.6412 18.1542 16.1333 18.2625 15.6C18.3708 15.0667 18.425 14.525 18.425 13.975C18.425 12.4083 18.0375 10.9875 17.2625 9.7125C16.4875 8.4375 15.4667 7.425 14.2 6.675V7.65C14.2 8.2275 13.9944 8.72192 13.5833 9.13325C13.1719 9.54442 12.6775 9.75 12.1 9.75H11.05V11.875C11.05 12.1583 10.9458 12.4042 10.7375 12.6125C10.5292 12.8208 10.2833 12.925 10 12.925H8.95V14.7005C8.95 15.0835 8.81775 15.4083 8.55325 15.675C8.28892 15.9417 7.96283 16.075 7.575 16.075C7.34167 16.075 7.12083 16.0208 6.9125 15.9125C6.70417 15.8042 6.53333 15.6583 6.4 15.475L4.723 12.925H3.675V13.9672C3.675 14.5057 3.49583 14.9708 3.1375 15.3625C2.77917 15.7542 2.34167 15.9833 1.825 16.05C2.29167 17.8667 3.28125 19.3792 4.79375 20.5875C6.30625 21.7958 8.04167 22.4 10 22.4ZM10.0067 24C8.62775 24 7.33192 23.7375 6.11925 23.2125C4.90642 22.6875 3.84583 21.9708 2.9375 21.0625C2.02917 20.1542 1.3125 19.093 0.7875 17.879C0.2625 16.665 0 15.3678 0 13.9875C0 12.6072 0.2625 11.31 0.7875 10.096C1.3125 8.882 2.02917 7.825 2.9375 6.925C3.84583 6.025 4.907 5.3125 6.121 4.7875C7.335 4.2625 8.63217 4 10.0125 4C11.3928 4 12.69 4.2625 13.904 4.7875C15.118 5.3125 16.175 6.025 17.075 6.925C17.975 7.825 18.6875 8.88333 19.2125 10.1C19.7375 11.3167 20 12.6144 20 13.9933C20 15.3723 19.7375 16.6681 19.2125 17.8807C18.6875 19.0936 17.975 20.1527 17.075 21.058C16.175 21.9632 15.1167 22.6798 13.9 23.208C12.6833 23.736 11.3856 24 10.0067 24Z" fill="#EEEEEE"/>
</svg>
