<svg width="200" height="60" viewBox="0 0 200 60" fill="none" xmlns="http://www.w3.org/2000/svg">
<path d="M70.3965 20.4277C70.3965 19.9538 70.5332 19.6165 70.8066 19.416C71.0801 19.2155 71.5312 19.1152 72.1602 19.1152C72.3789 19.1152 72.5703 19.138 72.7344 19.1836C72.8984 19.2292 73.0352 19.3066 73.1445 19.416C73.2539 19.5163 73.3405 19.6576 73.4043 19.8398C73.4772 20.013 73.5365 20.2363 73.582 20.5098C73.7005 21.321 73.819 22.1732 73.9375 23.0664C74.0651 23.9505 74.1836 24.8346 74.293 25.7188C74.4115 26.5938 74.5208 27.4505 74.6211 28.2891C74.7214 29.1185 74.8079 29.8932 74.8809 30.6133C74.9629 31.3242 75.0221 31.9577 75.0586 32.5137C75.1042 33.0605 75.127 33.4935 75.127 33.8125C75.127 34.1406 75.0951 34.4186 75.0312 34.6465C74.9766 34.8743 74.8763 35.0566 74.7305 35.1934C74.5938 35.3301 74.4115 35.4303 74.1836 35.4941C73.9648 35.5488 73.6914 35.5762 73.3633 35.5762C73.0443 35.5762 72.7891 35.4941 72.5977 35.3301C72.4154 35.166 72.3242 34.9154 72.3242 34.5781C72.3242 34.2318 72.2969 33.7715 72.2422 33.1973C72.1875 32.6139 72.1146 31.9668 72.0234 31.2559C71.9323 30.5449 71.8275 29.7884 71.709 28.9863C71.5996 28.1842 71.4811 27.3913 71.3535 26.6074C71.235 25.8236 71.1165 25.0716 70.998 24.3516C70.8887 23.6224 70.7884 22.9798 70.6973 22.4238C70.6061 21.8587 70.5332 21.3984 70.4785 21.043C70.4238 20.6784 70.3965 20.4733 70.3965 20.4277ZM80.7652 22.0547C80.5009 22.0547 80.2503 22.0182 80.0133 21.9453C79.7854 21.8633 79.5849 21.7539 79.4117 21.6172C79.2477 21.4714 79.1155 21.3027 79.0152 21.1113C78.915 20.9199 78.8648 20.7103 78.8648 20.4824C78.8648 20.0996 79.0152 19.7897 79.316 19.5527C79.6259 19.3158 80.0361 19.1973 80.5465 19.1973C80.7835 19.1973 81.0113 19.2428 81.2301 19.334C81.4488 19.416 81.6402 19.5299 81.8043 19.6758C81.9775 19.8216 82.1142 19.9948 82.2145 20.1953C82.3147 20.3867 82.3648 20.5872 82.3648 20.7969C82.3648 21.1888 82.219 21.4987 81.9273 21.7266C81.6448 21.9453 81.2574 22.0547 80.7652 22.0547ZM78.8922 26.2246C78.8922 25.9056 79.0289 25.6458 79.3023 25.4453C79.5849 25.2357 79.954 25.1309 80.4098 25.1309C81.2301 25.1309 81.6676 25.4134 81.7223 25.9785C81.7587 26.3704 81.7952 26.8125 81.8316 27.3047C81.8772 27.7969 81.9182 28.321 81.9547 28.877C82.0003 29.4238 82.0367 29.9935 82.0641 30.5859C82.1005 31.1693 82.1324 31.748 82.1598 32.3223C82.1871 32.8874 82.2099 33.4342 82.2281 33.9629C82.2464 34.4915 82.2555 34.9746 82.2555 35.4121C82.2555 35.8678 82.0914 36.2096 81.7633 36.4375C81.4443 36.6654 80.9749 36.7793 80.3551 36.7793C80.0725 36.7793 79.8492 36.7109 79.6852 36.5742C79.5302 36.4466 79.4527 36.2552 79.4527 36C79.4527 34.7422 79.4208 33.5664 79.357 32.4727C79.3023 31.3698 79.2385 30.39 79.1656 29.5332C79.1018 28.6764 79.038 27.9655 78.9742 27.4004C78.9195 26.8262 78.8922 26.4342 78.8922 26.2246ZM85.4465 20.4277C85.4465 19.9538 85.5832 19.6165 85.8566 19.416C86.1301 19.2155 86.5813 19.1152 87.2102 19.1152C87.4289 19.1152 87.6203 19.138 87.7844 19.1836C87.9484 19.2292 88.0852 19.3066 88.1945 19.416C88.3039 19.5163 88.3905 19.6576 88.4543 19.8398C88.5272 20.013 88.5865 20.2363 88.632 20.5098C88.7505 21.321 88.869 22.1732 88.9875 23.0664C89.1151 23.9505 89.2336 24.8346 89.343 25.7188C89.4615 26.5938 89.5708 27.4505 89.6711 28.2891C89.7714 29.1185 89.8579 29.8932 89.9309 30.6133C90.0129 31.3242 90.0721 31.9577 90.1086 32.5137C90.1542 33.0605 90.177 33.4935 90.177 33.8125C90.177 34.1406 90.1451 34.4186 90.0813 34.6465C90.0266 34.8743 89.9263 35.0566 89.7805 35.1934C89.6438 35.3301 89.4615 35.4303 89.2336 35.4941C89.0148 35.5488 88.7414 35.5762 88.4133 35.5762C88.0943 35.5762 87.8391 35.4941 87.6477 35.3301C87.4654 35.166 87.3742 34.9154 87.3742 34.5781C87.3742 34.2318 87.3469 33.7715 87.2922 33.1973C87.2375 32.6139 87.1646 31.9668 87.0734 31.2559C86.9823 30.5449 86.8775 29.7884 86.759 28.9863C86.6496 28.1842 86.5311 27.3913 86.4035 26.6074C86.285 25.8236 86.1665 25.0716 86.048 24.3516C85.9387 23.6224 85.8384 22.9798 85.7473 22.4238C85.6561 21.8587 85.5832 21.3984 85.5285 21.043C85.4738 20.6784 85.4465 20.4733 85.4465 20.4277ZM99.4656 36.3691C98.9188 36.3691 98.3719 36.237 97.825 35.9727C97.2781 35.6992 96.754 35.3301 96.2527 34.8652C95.7514 34.4004 95.2866 33.8535 94.8582 33.2246C94.4298 32.5866 94.0561 31.903 93.7371 31.1738C93.4181 30.4355 93.1674 29.6654 92.9852 28.8633C92.8029 28.0612 92.7117 27.2591 92.7117 26.457C92.7117 25.8372 92.8393 25.3952 93.0945 25.1309C93.3497 24.8574 93.7645 24.7207 94.3387 24.7207C95.0587 24.7207 95.4598 25.0169 95.5418 25.6094C95.7059 26.8672 95.9337 28.002 96.2254 29.0137C96.5171 30.0254 96.8589 30.8867 97.2508 31.5977C97.6518 32.3086 98.0939 32.8555 98.577 33.2383C99.0691 33.6211 99.5887 33.8125 100.136 33.8125C100.527 33.8125 100.897 33.7168 101.243 33.5254C101.589 33.3249 101.89 33.0469 102.145 32.6914C102.236 32.5547 102.296 32.4225 102.323 32.2949C102.36 32.1673 102.387 32.0215 102.405 31.8574C102.451 31.2103 102.501 30.5768 102.555 29.957C102.619 29.3281 102.679 28.6992 102.733 28.0703C102.751 27.7969 102.788 27.5736 102.843 27.4004C102.897 27.2272 102.979 27.0905 103.089 26.9902C103.198 26.89 103.339 26.8216 103.513 26.7852C103.695 26.7487 103.923 26.7305 104.196 26.7305C104.506 26.7305 104.77 26.776 104.989 26.8672C105.208 26.9492 105.386 27.0905 105.522 27.291C105.659 27.4824 105.755 27.7376 105.809 28.0566C105.873 28.3665 105.905 28.7539 105.905 29.2188C105.905 29.6198 105.873 29.9707 105.809 30.2715C105.755 30.5632 105.686 30.8411 105.604 31.1055C105.531 31.3607 105.458 31.6159 105.386 31.8711C105.322 32.1172 105.281 32.3906 105.263 32.6914C105.217 33.4479 105.176 34.1042 105.139 34.6602C105.103 35.207 105.071 35.6764 105.044 36.0684C105.026 36.4603 105.007 36.7975 104.989 37.0801C104.98 37.3626 104.971 37.6133 104.962 37.832C104.953 38.0599 104.948 38.2741 104.948 38.4746C104.948 38.6751 104.948 38.8939 104.948 39.1309C104.948 39.5592 104.966 40.0241 105.003 40.5254C105.039 41.0358 105.076 41.5234 105.112 41.9883C105.158 42.4531 105.199 42.8633 105.235 43.2188C105.272 43.5742 105.29 43.8203 105.29 43.957C105.29 44.1302 105.235 44.2943 105.126 44.4492C105.016 44.6042 104.871 44.7409 104.688 44.8594C104.506 44.9779 104.292 45.069 104.046 45.1328C103.8 45.2057 103.54 45.2422 103.266 45.2422C103.029 45.2422 102.838 45.1602 102.692 44.9961C102.555 44.8411 102.478 44.6315 102.46 44.3672C102.432 44.0208 102.41 43.597 102.391 43.0957C102.373 42.6035 102.355 42.0749 102.337 41.5098C102.318 40.9538 102.305 40.3841 102.296 39.8008C102.296 39.2266 102.291 38.6888 102.282 38.1875C102.273 37.6953 102.268 37.2624 102.268 36.8887C102.268 36.515 102.268 36.2461 102.268 36.082C102.268 35.918 102.25 35.804 102.214 35.7402C102.177 35.6673 102.109 35.6309 102.009 35.6309C101.954 35.6309 101.881 35.6491 101.79 35.6855C101.699 35.7129 101.594 35.763 101.475 35.8359C101.156 36.0273 100.833 36.1641 100.505 36.2461C100.177 36.3281 99.8302 36.3691 99.4656 36.3691ZM124.4 25.7734C124.063 25.7734 123.767 25.8646 123.512 26.0469C123.257 26.2201 123.038 26.4661 122.855 26.7852C122.673 27.0951 122.523 27.4642 122.404 27.8926C122.286 28.3118 122.19 28.7721 122.117 29.2734C122.044 29.7747 121.994 30.2988 121.967 30.8457C121.939 31.3926 121.926 31.944 121.926 32.5C121.926 33.2292 121.953 33.9492 122.008 34.6602C122.072 35.362 122.104 36.0137 122.104 36.6152C122.104 37.0072 121.958 37.3125 121.666 37.5312C121.374 37.7591 120.96 37.873 120.422 37.873C120.322 37.873 120.208 37.8639 120.08 37.8457C119.952 37.8275 119.829 37.791 119.711 37.7363C119.602 37.6816 119.501 37.6042 119.41 37.5039C119.328 37.4128 119.283 37.2852 119.273 37.1211C119.191 36.319 119.073 35.4987 118.918 34.6602C118.763 33.8216 118.567 32.9876 118.33 32.1582C118.102 31.3197 117.824 30.4902 117.496 29.6699C117.177 28.8496 116.808 28.0475 116.389 27.2637C116.316 27.127 116.252 26.9993 116.197 26.8809C116.152 26.7624 116.129 26.6484 116.129 26.5391C116.129 26.4023 116.188 26.2565 116.307 26.1016C116.434 25.9375 116.589 25.7871 116.771 25.6504C116.963 25.5137 117.168 25.4043 117.387 25.3223C117.615 25.2311 117.833 25.1855 118.043 25.1855C118.389 25.1855 118.695 25.4271 118.959 25.9102C119.223 26.3841 119.469 27.1452 119.697 28.1934C119.743 28.3757 119.779 28.5033 119.807 28.5762C119.834 28.6491 119.87 28.6855 119.916 28.6855C120.016 28.6855 120.08 28.5306 120.107 28.2207C120.217 27.3548 120.404 26.612 120.668 25.9922C120.932 25.3633 121.26 24.8483 121.652 24.4473C122.053 24.0371 122.509 23.7363 123.02 23.5449C123.539 23.3535 124.109 23.2578 124.729 23.2578C125.084 23.2578 125.444 23.2897 125.809 23.3535C126.173 23.4173 126.501 23.513 126.793 23.6406C127.085 23.7682 127.322 23.9232 127.504 24.1055C127.686 24.2878 127.777 24.4928 127.777 24.7207C127.777 24.8848 127.741 25.0807 127.668 25.3086C127.604 25.5273 127.518 25.7415 127.408 25.9512C127.299 26.1517 127.171 26.3249 127.025 26.4707C126.889 26.6074 126.747 26.6758 126.602 26.6758C126.438 26.6758 126.278 26.6302 126.123 26.5391C125.968 26.4388 125.799 26.334 125.617 26.2246C125.444 26.1152 125.257 26.015 125.057 25.9238C124.865 25.8236 124.646 25.7734 124.4 25.7734ZM128.494 31.4609C128.494 31.306 128.512 31.1328 128.548 30.9414C128.585 30.75 128.603 30.5404 128.603 30.3125C128.603 30.1576 128.535 30.0391 128.398 29.957C128.27 29.875 128.125 29.7839 127.961 29.6836C127.796 29.5833 127.646 29.4557 127.509 29.3008C127.382 29.1458 127.318 28.9225 127.318 28.6309C127.318 28.4212 127.373 28.2116 127.482 28.002C127.601 27.7923 127.769 27.6009 127.988 27.4277C128.526 27.0267 129.082 26.6667 129.656 26.3477C130.239 26.0286 130.818 25.7598 131.392 25.541C131.976 25.3223 132.55 25.1536 133.115 25.0352C133.68 24.9167 134.222 24.8574 134.742 24.8574C135.617 24.8574 136.437 25.0215 137.203 25.3496C137.977 25.6686 138.647 26.1107 139.213 26.6758C139.787 27.2318 140.238 27.888 140.566 28.6445C140.903 29.3919 141.072 30.194 141.072 31.0508C141.072 31.8893 140.894 32.6868 140.539 33.4434C140.192 34.1908 139.723 34.847 139.13 35.4121C138.538 35.9772 137.841 36.4238 137.039 36.752C136.246 37.0892 135.407 37.2578 134.523 37.2578C133.657 37.2578 132.855 37.112 132.117 36.8203C131.379 36.5286 130.74 36.1276 130.203 35.6172C129.665 35.0977 129.246 34.487 128.945 33.7852C128.644 33.0742 128.494 32.2995 128.494 31.4609ZM134.824 34.7969C135.207 34.7969 135.603 34.7194 136.013 34.5645C136.423 34.4095 136.797 34.1862 137.134 33.8945C137.481 33.5938 137.763 33.2292 137.982 32.8008C138.21 32.3724 138.324 31.8893 138.324 31.3516C138.324 30.8047 138.224 30.2943 138.023 29.8203C137.823 29.3464 137.545 28.9362 137.189 28.5898C136.843 28.2344 136.428 27.9564 135.945 27.7559C135.471 27.5553 134.956 27.4551 134.4 27.4551C133.388 27.4551 132.614 27.7194 132.076 28.248C131.538 28.7676 131.269 29.5697 131.269 30.6543C131.269 31.2467 131.356 31.7982 131.529 32.3086C131.711 32.8099 131.962 33.2474 132.281 33.6211C132.6 33.9857 132.974 34.2728 133.402 34.4824C133.839 34.6921 134.313 34.7969 134.824 34.7969ZM151.495 25.3359C151.933 25.3359 152.348 25.3724 152.739 25.4453C153.131 25.5091 153.487 25.582 153.806 25.6641C154.125 25.737 154.398 25.8099 154.626 25.8828C154.854 25.9466 155.018 25.9785 155.118 25.9785C155.2 25.9785 155.278 25.9375 155.351 25.8555C155.424 25.7643 155.515 25.6686 155.624 25.5684C155.734 25.4681 155.879 25.377 156.062 25.2949C156.244 25.2038 156.486 25.1582 156.786 25.1582C157.133 25.1582 157.406 25.2493 157.607 25.4316C157.807 25.6048 157.907 25.8236 157.907 26.0879C157.907 29.4238 157.793 32.2585 157.566 34.5918C157.338 36.916 156.969 38.8073 156.458 40.2656C155.948 41.724 155.287 42.7812 154.476 43.4375C153.665 44.0938 152.68 44.4219 151.523 44.4219C150.994 44.4219 150.443 44.3034 149.868 44.0664C149.303 43.8294 148.784 43.5241 148.31 43.1504C147.836 42.7858 147.444 42.3802 147.134 41.9336C146.833 41.487 146.683 41.0586 146.683 40.6484C146.683 40.5117 146.756 40.3522 146.902 40.1699C147.047 39.9876 147.225 39.8099 147.435 39.6367C147.644 39.4635 147.863 39.3177 148.091 39.1992C148.319 39.0807 148.515 39.0215 148.679 39.0215C148.852 39.0215 148.998 39.0898 149.116 39.2266C149.235 39.3724 149.344 39.5501 149.445 39.7598C149.554 39.9694 149.663 40.1973 149.773 40.4434C149.882 40.6986 150.019 40.931 150.183 41.1406C150.347 41.3503 150.547 41.5234 150.784 41.6602C151.021 41.806 151.318 41.8789 151.673 41.8789C153.66 41.8789 154.827 38.8438 155.173 32.7734C155.173 32.5 155.096 32.3633 154.941 32.3633C154.813 32.3633 154.713 32.4271 154.64 32.5547C153.783 33.7122 152.78 34.5827 151.632 35.166C150.493 35.7402 149.226 36.0273 147.831 36.0273C147.184 36.0273 146.587 35.9316 146.04 35.7402C145.493 35.5397 145.019 35.2663 144.618 34.9199C144.226 34.5645 143.921 34.1452 143.702 33.6621C143.484 33.1699 143.374 32.6322 143.374 32.0488C143.374 31.4746 143.474 30.9095 143.675 30.3535C143.885 29.7884 144.172 29.2598 144.536 28.7676C144.91 28.2663 145.352 27.806 145.863 27.3867C146.373 26.9674 146.929 26.6074 147.53 26.3066C148.132 25.9967 148.765 25.7598 149.431 25.5957C150.105 25.4225 150.793 25.3359 151.495 25.3359ZM148.255 33.5117C149.504 33.5117 150.648 33.1198 151.687 32.3359C152.726 31.543 153.614 30.3945 154.353 28.8906C154.371 28.8359 154.385 28.7949 154.394 28.7676C154.403 28.7311 154.407 28.6947 154.407 28.6582C154.407 28.5671 154.312 28.4714 154.12 28.3711C153.929 28.2708 153.678 28.1842 153.368 28.1113C153.058 28.0384 152.703 27.9792 152.302 27.9336C151.91 27.8789 151.514 27.8516 151.113 27.8516C150.465 27.8516 149.841 27.9609 149.239 28.1797C148.638 28.3984 148.105 28.6901 147.64 29.0547C147.175 29.4193 146.801 29.834 146.519 30.2988C146.236 30.7637 146.095 31.2467 146.095 31.748C146.095 32.2858 146.291 32.7142 146.683 33.0332C147.084 33.3522 147.608 33.5117 148.255 33.5117ZM173.239 33.0059C173.503 32.778 173.763 32.6641 174.018 32.6641C174.164 32.6641 174.296 32.7005 174.415 32.7734C174.533 32.8464 174.665 32.9603 174.811 33.1152C174.948 33.3249 175.044 33.498 175.098 33.6348C175.162 33.7624 175.194 33.89 175.194 34.0176C175.194 34.291 175.057 34.5508 174.784 34.7969C174.346 35.1615 173.873 35.4896 173.362 35.7812C172.852 36.0638 172.318 36.3053 171.762 36.5059C171.207 36.7064 170.632 36.8568 170.04 36.957C169.447 37.0664 168.86 37.1211 168.276 37.1211C167.538 37.1211 166.845 37.0254 166.198 36.834C165.551 36.6517 164.972 36.3874 164.462 36.041C163.96 35.6947 163.537 35.2799 163.19 34.7969C162.844 34.3047 162.598 33.7533 162.452 33.1426C162.37 32.8874 162.292 32.7233 162.22 32.6504C162.156 32.5684 162.046 32.5273 161.891 32.5273C161.554 32.5273 161.294 32.4453 161.112 32.2812C160.93 32.1172 160.839 31.8802 160.839 31.5703C160.839 31.4427 160.848 31.3607 160.866 31.3242L160.893 31.0508C160.939 30.7227 161.026 30.4857 161.153 30.3398C161.29 30.194 161.499 30.1211 161.782 30.1211H161.987C162.37 30.1211 162.639 29.9434 162.794 29.5879C163.076 28.959 163.436 28.3848 163.874 27.8652C164.311 27.3457 164.804 26.9036 165.35 26.5391C165.897 26.1654 166.481 25.8783 167.1 25.6777C167.729 25.4681 168.367 25.3633 169.014 25.3633C169.689 25.3633 170.318 25.4635 170.901 25.6641C171.494 25.8555 172.009 26.1243 172.446 26.4707C172.884 26.8171 173.225 27.2227 173.471 27.6875C173.727 28.1523 173.854 28.6536 173.854 29.1914C173.854 29.5651 173.781 29.9069 173.636 30.2168C173.49 30.5267 173.28 30.8001 173.007 31.0371C172.733 31.265 172.401 31.4518 172.009 31.5977C171.626 31.7435 171.188 31.8392 170.696 31.8848L165.952 32.3633C165.77 32.3633 165.619 32.4089 165.501 32.5C165.391 32.5911 165.337 32.7142 165.337 32.8691C165.337 33.1061 165.423 33.334 165.596 33.5527C165.779 33.7715 166.016 33.9674 166.307 34.1406C166.608 34.3047 166.95 34.4368 167.333 34.5371C167.725 34.6374 168.126 34.6875 168.536 34.6875C168.928 34.6875 169.329 34.651 169.739 34.5781C170.158 34.4961 170.568 34.3822 170.97 34.2363C171.38 34.0905 171.776 33.9173 172.159 33.7168C172.542 33.5072 172.902 33.2702 173.239 33.0059ZM170.19 29.4785C170.327 29.4512 170.445 29.3874 170.546 29.2871C170.646 29.1777 170.696 29.0456 170.696 28.8906C170.696 28.7539 170.646 28.6263 170.546 28.5078C170.445 28.3893 170.309 28.2845 170.136 28.1934C169.962 28.0931 169.762 28.0156 169.534 27.9609C169.306 27.9062 169.065 27.8789 168.809 27.8789C168.436 27.8789 168.053 27.9336 167.661 28.043C167.269 28.1523 166.914 28.2982 166.595 28.4805C166.276 28.6536 166.016 28.8496 165.815 29.0684C165.615 29.278 165.514 29.4876 165.514 29.6973C165.514 29.9069 165.642 30.0117 165.897 30.0117C166.052 30.0117 166.303 29.9935 166.649 29.957C166.996 29.9206 167.378 29.8796 167.798 29.834C168.217 29.7793 168.641 29.7201 169.069 29.6562C169.498 29.5924 169.871 29.5332 170.19 29.4785ZM184.879 25.7734C184.542 25.7734 184.246 25.8646 183.991 26.0469C183.735 26.2201 183.517 26.4661 183.334 26.7852C183.152 27.0951 183.002 27.4642 182.883 27.8926C182.765 28.3118 182.669 28.7721 182.596 29.2734C182.523 29.7747 182.473 30.2988 182.446 30.8457C182.418 31.3926 182.405 31.944 182.405 32.5C182.405 33.2292 182.432 33.9492 182.487 34.6602C182.551 35.362 182.582 36.0137 182.582 36.6152C182.582 37.0072 182.437 37.3125 182.145 37.5312C181.853 37.7591 181.439 37.873 180.901 37.873C180.801 37.873 180.687 37.8639 180.559 37.8457C180.431 37.8275 180.308 37.791 180.19 37.7363C180.08 37.6816 179.98 37.6042 179.889 37.5039C179.807 37.4128 179.761 37.2852 179.752 37.1211C179.67 36.319 179.552 35.4987 179.397 34.6602C179.242 33.8216 179.046 32.9876 178.809 32.1582C178.581 31.3197 178.303 30.4902 177.975 29.6699C177.656 28.8496 177.287 28.0475 176.868 27.2637C176.795 27.127 176.731 26.9993 176.676 26.8809C176.631 26.7624 176.608 26.6484 176.608 26.5391C176.608 26.4023 176.667 26.2565 176.786 26.1016C176.913 25.9375 177.068 25.7871 177.25 25.6504C177.442 25.5137 177.647 25.4043 177.866 25.3223C178.093 25.2311 178.312 25.1855 178.522 25.1855C178.868 25.1855 179.174 25.4271 179.438 25.9102C179.702 26.3841 179.948 27.1452 180.176 28.1934C180.222 28.3757 180.258 28.5033 180.286 28.5762C180.313 28.6491 180.349 28.6855 180.395 28.6855C180.495 28.6855 180.559 28.5306 180.586 28.2207C180.696 27.3548 180.883 26.612 181.147 25.9922C181.411 25.3633 181.739 24.8483 182.131 24.4473C182.532 24.0371 182.988 23.7363 183.498 23.5449C184.018 23.3535 184.588 23.2578 185.207 23.2578C185.563 23.2578 185.923 23.2897 186.287 23.3535C186.652 23.4173 186.98 23.513 187.272 23.6406C187.564 23.7682 187.801 23.9232 187.983 24.1055C188.165 24.2878 188.256 24.4928 188.256 24.7207C188.256 24.8848 188.22 25.0807 188.147 25.3086C188.083 25.5273 187.996 25.7415 187.887 25.9512C187.778 26.1517 187.65 26.3249 187.504 26.4707C187.368 26.6074 187.226 26.6758 187.08 26.6758C186.916 26.6758 186.757 26.6302 186.602 26.5391C186.447 26.4388 186.278 26.334 186.096 26.2246C185.923 26.1152 185.736 26.015 185.536 25.9238C185.344 25.8236 185.125 25.7734 184.879 25.7734Z" fill="black"/>
<path d="M31.4278 22.6078C32.8611 22.6078 33.2666 27.2696 34.3682 28.4627C35.4698 29.6558 37.5838 30.3609 37.5838 33.5544C37.5908 35.3892 37.2468 36.6294 36.7818 37.7588C36.3198 38.8809 35.742 39.9487 35.3578 41.1032C34.4453 43.8456 34.5612 46.9666 34.3682 49.8322C34.2964 50.8991 33.8362 54.5977 31.8929 53.4434C31.2447 53.0582 31.1695 52.223 31.1252 51.5475C30.9303 48.5726 31.0827 45.5089 31.4278 42.5525C31.5626 41.3984 31.7466 40.3501 32.0088 39.7203C32.8074 37.8021 34.3602 35.8323 34.0602 33.649C33.7783 31.5974 32.2088 30.3612 30.972 30.3609C29.4338 30.3609 27.0451 34.3175 25.8741 35.8788C24.7031 37.4401 23.1418 39.33 21.9709 38.6111C20.7999 37.8922 23.5322 33.8426 24.3128 32.7562C25.0935 31.6699 27.0227 29.0589 28.5858 27.4937C29.434 26.6444 29.5789 25.8534 29.6744 24.9383C29.6744 24.9383 29.9946 22.6078 31.4278 22.6078Z" fill="#B22222"/>
<path fill-rule="evenodd" clip-rule="evenodd" d="M24.0275 7.70228C29.747 6.9424 45 6.60453 45 7.70228C45 11.0805 37.3062 15.6025 35.6322 18.2898C33.9582 20.9771 32.0903 23.9252 29.6582 23.7788C27.2262 23.6324 26.5857 22.7124 25.6384 22.203C25.3113 22.0271 24.9421 21.7667 24.5535 21.8111C23.1093 21.9763 17.6773 24.9498 17.6773 24.9498C16.9264 25.3401 16.2915 27.5155 15.3354 26.1207C14.3792 24.726 15.6676 13.8756 16.7021 11.8022C17.7538 9.69501 20.5421 8.16536 24.0275 7.70228ZM22.9137 11.6269C21.8004 11.6426 20.1393 12.563 19.5975 13.5427C19.439 13.8293 19.2458 14.4311 19.0555 15.2572C18.63 17.1034 18.2839 19.075 18.3045 20.9771C19.7191 20.5021 21.7123 19.549 22.6118 18.2898C22.8342 17.9783 22.801 17.3921 22.8291 17.0304C22.9688 15.2347 22.922 13.426 22.9137 11.6269ZM29.6582 10.8439C28.8651 10.7849 27.0751 10.7486 26.5547 11.5255C26.4626 11.6632 26.3287 12.0415 26.2124 12.6698C25.9927 13.857 25.9007 15.587 26.0142 16.8924C26.0726 17.5641 26.1789 18.0609 26.3047 18.3348C26.8385 19.4966 28.7778 20.5821 30.0501 20.1454C32.2616 19.3861 31.6616 14.997 31.4239 13.3826C31.3234 12.7005 31.1731 11.3489 30.445 10.9956C30.3307 10.9402 30.065 10.8742 29.6582 10.8439ZM39.1451 10.4559C39.5355 9.91615 35.1638 9.86272 34.3879 10.4559C33.8034 11.308 34.2429 13.2847 34.6616 14.1198C35.5039 13.5316 35.6034 13.4504 36.4129 12.6698C37.2223 11.8891 38.7548 10.9956 39.1451 10.4559Z" fill="#B22222"/>
</svg>
