<svg width="180" height="60" viewBox="0 0 180 60" fill="none" xmlns="http://www.w3.org/2000/svg">
<path d="M50.4106 18.8716C50.4106 18.3807 50.5522 18.0314 50.8354 17.8237C51.1187 17.616 51.5859 17.5122 52.2373 17.5122C52.4639 17.5122 52.6621 17.5358 52.832 17.583C53.002 17.6302 53.1436 17.7104 53.2568 17.8237C53.3701 17.9276 53.4598 18.0739 53.5259 18.2627C53.6014 18.4421 53.6628 18.6733 53.71 18.9565C53.8327 19.7967 53.9554 20.6794 54.0781 21.6045C54.2103 22.5202 54.333 23.4359 54.4463 24.3516C54.569 25.2578 54.6823 26.1452 54.7861 27.0137C54.89 27.8727 54.9797 28.6751 55.0552 29.4209C55.1401 30.1572 55.2015 30.8133 55.2393 31.3892C55.2865 31.9556 55.3101 32.404 55.3101 32.7344C55.3101 33.0742 55.277 33.3621 55.2109 33.5981C55.1543 33.8341 55.0505 34.0229 54.8994 34.1646C54.7578 34.3062 54.569 34.41 54.333 34.4761C54.1064 34.5327 53.8232 34.561 53.4834 34.561C53.153 34.561 52.8887 34.4761 52.6904 34.3062C52.5016 34.1362 52.4072 33.8766 52.4072 33.5273C52.4072 33.1686 52.3789 32.6919 52.3223 32.0972C52.2656 31.493 52.1901 30.8228 52.0957 30.0864C52.0013 29.3501 51.8927 28.5666 51.77 27.7358C51.6567 26.9051 51.534 26.0838 51.4019 25.272C51.2791 24.4601 51.1564 23.6813 51.0337 22.9355C50.9204 22.1803 50.8166 21.5148 50.7222 20.939C50.6278 20.3537 50.5522 19.877 50.4956 19.5088C50.439 19.1312 50.4106 18.9188 50.4106 18.8716ZM61.1497 20.5566C60.8759 20.5566 60.6163 20.5189 60.3709 20.4434C60.1349 20.3584 59.9272 20.2451 59.7479 20.1035C59.5779 19.9525 59.441 19.7778 59.3372 19.5796C59.2334 19.3813 59.1814 19.1642 59.1814 18.9282C59.1814 18.5317 59.3372 18.2108 59.6487 17.9653C59.9697 17.7199 60.3945 17.5972 60.9231 17.5972C61.1686 17.5972 61.4046 17.6444 61.6312 17.7388C61.8577 17.8237 62.056 17.9417 62.2259 18.0928C62.4052 18.2438 62.5468 18.4232 62.6507 18.6309C62.7545 18.8291 62.8064 19.0368 62.8064 19.2539C62.8064 19.6598 62.6554 19.9808 62.3533 20.2168C62.0607 20.4434 61.6595 20.5566 61.1497 20.5566ZM59.2098 24.8755C59.2098 24.5451 59.3514 24.276 59.6346 24.0684C59.9272 23.8512 60.3095 23.7427 60.7815 23.7427C61.6312 23.7427 62.0843 24.0353 62.1409 24.6206C62.1787 25.0265 62.2164 25.4844 62.2542 25.9941C62.3014 26.5039 62.3439 27.0467 62.3816 27.6226C62.4288 28.189 62.4666 28.779 62.4949 29.3926C62.5327 29.9967 62.5657 30.5962 62.594 31.1909C62.6224 31.7762 62.646 32.3426 62.6648 32.8901C62.6837 33.4377 62.6932 33.938 62.6932 34.3911C62.6932 34.8631 62.5232 35.2171 62.1834 35.4531C61.853 35.6891 61.3668 35.8071 60.7249 35.8071C60.4323 35.8071 60.201 35.7363 60.0311 35.5947C59.8706 35.4626 59.7903 35.2643 59.7903 35C59.7903 33.6973 59.7573 32.4795 59.6912 31.3467C59.6346 30.2044 59.5685 29.1896 59.493 28.3022C59.4269 27.4149 59.3608 26.6785 59.2947 26.0933C59.2381 25.4985 59.2098 25.0926 59.2098 24.8755ZM65.9981 18.8716C65.9981 18.3807 66.1397 18.0314 66.4229 17.8237C66.7062 17.616 67.1734 17.5122 67.8248 17.5122C68.0514 17.5122 68.2496 17.5358 68.4195 17.583C68.5895 17.6302 68.7311 17.7104 68.8443 17.8237C68.9576 17.9276 69.0473 18.0739 69.1134 18.2627C69.1889 18.4421 69.2503 18.6733 69.2975 18.9565C69.4202 19.7967 69.5429 20.6794 69.6656 21.6045C69.7978 22.5202 69.9205 23.4359 70.0338 24.3516C70.1565 25.2578 70.2698 26.1452 70.3736 27.0137C70.4775 27.8727 70.5672 28.6751 70.6427 29.4209C70.7276 30.1572 70.789 30.8133 70.8268 31.3892C70.874 31.9556 70.8976 32.404 70.8976 32.7344C70.8976 33.0742 70.8645 33.3621 70.7984 33.5981C70.7418 33.8341 70.638 34.0229 70.4869 34.1646C70.3453 34.3062 70.1565 34.41 69.9205 34.4761C69.6939 34.5327 69.4107 34.561 69.0709 34.561C68.7405 34.561 68.4762 34.4761 68.2779 34.3062C68.0891 34.1362 67.9947 33.8766 67.9947 33.5273C67.9947 33.1686 67.9664 32.6919 67.9098 32.0972C67.8531 31.493 67.7776 30.8228 67.6832 30.0864C67.5888 29.3501 67.4802 28.5666 67.3575 27.7358C67.2442 26.9051 67.1215 26.0838 66.9894 25.272C66.8666 24.4601 66.7439 23.6813 66.6212 22.9355C66.5079 22.1803 66.4041 21.5148 66.3097 20.939C66.2153 20.3537 66.1397 19.877 66.0831 19.5088C66.0265 19.1312 65.9981 18.9188 65.9981 18.8716ZM80.518 35.3823C79.9516 35.3823 79.3852 35.2454 78.8188 34.9717C78.2523 34.6885 77.7095 34.3062 77.1903 33.8247C76.6711 33.3433 76.1897 32.7769 75.746 32.1255C75.3023 31.4647 74.9153 30.7567 74.5849 30.0015C74.2545 29.2368 73.9949 28.4391 73.8061 27.6084C73.6173 26.7777 73.5229 25.9469 73.5229 25.1162C73.5229 24.4743 73.655 24.0164 73.9193 23.7427C74.1837 23.4595 74.6132 23.3179 75.2079 23.3179C75.9537 23.3179 76.369 23.6247 76.454 24.2383C76.6239 25.541 76.8599 26.7163 77.162 27.7642C77.4641 28.812 77.8181 29.7041 78.224 30.4404C78.6394 31.1768 79.0972 31.7432 79.5976 32.1396C80.1073 32.5361 80.6454 32.7344 81.2118 32.7344C81.6177 32.7344 82.0001 32.6353 82.3588 32.437C82.7175 32.2293 83.029 31.9414 83.2934 31.5732C83.3878 31.4316 83.4491 31.2948 83.4774 31.1626C83.5152 31.0304 83.5435 30.8794 83.5624 30.7095C83.6096 30.0392 83.6615 29.3831 83.7182 28.7412C83.7842 28.0898 83.8456 27.4385 83.9022 26.7871C83.9211 26.5039 83.9589 26.2726 84.0155 26.0933C84.0722 25.9139 84.1571 25.7723 84.2704 25.6685C84.3837 25.5646 84.53 25.4938 84.7094 25.4561C84.8982 25.4183 85.1342 25.3994 85.4174 25.3994C85.7383 25.3994 86.0121 25.4466 86.2387 25.541C86.4652 25.626 86.6493 25.7723 86.7909 25.98C86.9325 26.1782 87.0316 26.4425 87.0883 26.7729C87.1544 27.0939 87.1874 27.4951 87.1874 27.9766C87.1874 28.3919 87.1544 28.7554 87.0883 29.0669C87.0316 29.369 86.9608 29.6569 86.8759 29.9307C86.8004 30.195 86.7248 30.4593 86.6493 30.7236C86.5832 30.9785 86.5408 31.2617 86.5219 31.5732C86.4747 32.3568 86.4322 33.0365 86.3944 33.6123C86.3567 34.1787 86.3236 34.6649 86.2953 35.0708C86.2764 35.4767 86.2576 35.826 86.2387 36.1187C86.2292 36.4113 86.2198 36.6709 86.2104 36.8975C86.2009 37.1335 86.1962 37.3553 86.1962 37.563C86.1962 37.7707 86.1962 37.9972 86.1962 38.2427C86.1962 38.6864 86.2151 39.1678 86.2528 39.687C86.2906 40.2157 86.3284 40.7207 86.3661 41.2021C86.4133 41.6836 86.4558 42.1084 86.4936 42.4766C86.5313 42.8447 86.5502 43.0996 86.5502 43.2412C86.5502 43.4206 86.4936 43.5905 86.3803 43.751C86.267 43.9115 86.116 44.0531 85.9271 44.1758C85.7383 44.2985 85.5165 44.3929 85.2616 44.459C85.0067 44.5345 84.7377 44.5723 84.4545 44.5723C84.209 44.5723 84.0108 44.4873 83.8598 44.3174C83.7182 44.1569 83.6379 43.9398 83.619 43.666C83.5907 43.3073 83.5671 42.8683 83.5482 42.3491C83.5294 41.8394 83.5105 41.2918 83.4916 40.7065C83.4727 40.1307 83.4586 39.5407 83.4491 38.9365C83.4491 38.3418 83.4444 37.7848 83.435 37.2656C83.4255 36.7559 83.4208 36.3075 83.4208 35.9204C83.4208 35.5334 83.4208 35.2549 83.4208 35.085C83.4208 34.915 83.4019 34.797 83.3642 34.731C83.3264 34.6554 83.2556 34.6177 83.1518 34.6177C83.0951 34.6177 83.0196 34.6366 82.9252 34.6743C82.8308 34.7026 82.7222 34.7546 82.5995 34.8301C82.2691 35.0283 81.934 35.1699 81.5941 35.2549C81.2543 35.3398 80.8956 35.3823 80.518 35.3823ZM106.343 24.4082C105.994 24.4082 105.687 24.5026 105.423 24.6914C105.159 24.8708 104.932 25.1257 104.743 25.4561C104.554 25.777 104.399 26.1593 104.276 26.603C104.153 27.0373 104.054 27.514 103.979 28.0332C103.903 28.5524 103.851 29.0952 103.823 29.6616C103.794 30.228 103.78 30.7992 103.78 31.375C103.78 32.1302 103.809 32.876 103.865 33.6123C103.931 34.3392 103.964 35.0142 103.964 35.6372C103.964 36.0431 103.813 36.3594 103.511 36.5859C103.209 36.8219 102.78 36.9399 102.223 36.9399C102.119 36.9399 102.001 36.9305 101.869 36.9116C101.736 36.8927 101.609 36.855 101.486 36.7983C101.373 36.7417 101.269 36.6615 101.175 36.5576C101.09 36.4632 101.043 36.3311 101.033 36.1611C100.948 35.3304 100.826 34.4808 100.665 33.6123C100.505 32.7438 100.302 31.88 100.056 31.021C99.8201 30.1525 99.5322 29.2935 99.1924 28.4438C98.862 27.5942 98.4797 26.7635 98.0454 25.9517C97.9699 25.8101 97.9038 25.6779 97.8472 25.5552C97.8 25.4325 97.7764 25.3145 97.7764 25.2012C97.7764 25.0596 97.8377 24.9085 97.9604 24.748C98.0926 24.5781 98.2531 24.4224 98.4419 24.2808C98.6401 24.1392 98.8525 24.0259 99.0791 23.9409C99.3151 23.8465 99.5417 23.7993 99.7588 23.7993C100.118 23.7993 100.434 24.0495 100.708 24.5498C100.981 25.0407 101.236 25.8289 101.472 26.9146C101.519 27.1034 101.557 27.2355 101.585 27.311C101.614 27.3866 101.652 27.4243 101.699 27.4243C101.803 27.4243 101.869 27.2638 101.897 26.9429C102.01 26.0461 102.204 25.2767 102.478 24.6348C102.751 23.9834 103.091 23.45 103.497 23.0347C103.912 22.6099 104.384 22.2983 104.913 22.1001C105.451 21.9019 106.041 21.8027 106.683 21.8027C107.051 21.8027 107.424 21.8358 107.802 21.9019C108.179 21.9679 108.519 22.0671 108.821 22.1992C109.123 22.3314 109.369 22.4919 109.558 22.6807C109.746 22.8695 109.841 23.0819 109.841 23.3179C109.841 23.4878 109.803 23.6908 109.728 23.9268C109.661 24.1533 109.572 24.3752 109.458 24.5923C109.345 24.8 109.213 24.9793 109.062 25.1304C108.92 25.272 108.774 25.3428 108.623 25.3428C108.453 25.3428 108.288 25.2956 108.127 25.2012C107.967 25.0973 107.792 24.9888 107.604 24.8755C107.424 24.7622 107.231 24.6584 107.023 24.564C106.825 24.4601 106.598 24.4082 106.343 24.4082ZM110.583 30.2988C110.583 30.1383 110.602 29.959 110.639 29.7607C110.677 29.5625 110.696 29.3454 110.696 29.1094C110.696 28.9489 110.625 28.8262 110.484 28.7412C110.352 28.6562 110.2 28.5618 110.031 28.458C109.861 28.3542 109.705 28.222 109.563 28.0615C109.431 27.901 109.365 27.6698 109.365 27.3677C109.365 27.1506 109.422 26.9334 109.535 26.7163C109.658 26.4992 109.832 26.3009 110.059 26.1216C110.616 25.7062 111.192 25.3333 111.786 25.0029C112.391 24.6725 112.99 24.394 113.585 24.1675C114.189 23.9409 114.784 23.7663 115.369 23.6436C115.954 23.5208 116.516 23.4595 117.054 23.4595C117.96 23.4595 118.81 23.6294 119.603 23.9692C120.405 24.2996 121.099 24.7575 121.684 25.3428C122.279 25.9186 122.746 26.5983 123.086 27.3818C123.436 28.1559 123.61 28.9867 123.61 29.874C123.61 30.7425 123.426 31.5685 123.058 32.3521C122.699 33.1261 122.213 33.8058 121.599 34.3911C120.986 34.9764 120.264 35.439 119.433 35.7788C118.612 36.1281 117.743 36.3027 116.827 36.3027C115.931 36.3027 115.1 36.1517 114.335 35.8496C113.571 35.5475 112.91 35.1322 112.353 34.6035C111.796 34.0654 111.362 33.4329 111.05 32.7061C110.739 31.9697 110.583 31.1673 110.583 30.2988ZM117.139 33.7539C117.535 33.7539 117.946 33.6737 118.371 33.5132C118.796 33.3527 119.183 33.1214 119.532 32.8193C119.891 32.5078 120.183 32.1302 120.41 31.6865C120.646 31.2428 120.764 30.7425 120.764 30.1855C120.764 29.6191 120.66 29.0905 120.452 28.5996C120.245 28.1087 119.957 27.6839 119.589 27.3252C119.23 26.957 118.8 26.6691 118.3 26.4614C117.809 26.2537 117.276 26.1499 116.7 26.1499C115.652 26.1499 114.85 26.4237 114.293 26.9712C113.736 27.5093 113.457 28.34 113.457 29.4634C113.457 30.077 113.547 30.6481 113.726 31.1768C113.915 31.696 114.175 32.1491 114.505 32.5361C114.836 32.9137 115.223 33.2111 115.666 33.4282C116.119 33.6453 116.61 33.7539 117.139 33.7539ZM134.406 23.9551C134.859 23.9551 135.289 23.9928 135.694 24.0684C136.1 24.1344 136.469 24.21 136.799 24.2949C137.129 24.3704 137.413 24.446 137.649 24.5215C137.885 24.5876 138.054 24.6206 138.158 24.6206C138.243 24.6206 138.324 24.5781 138.399 24.4932C138.475 24.3988 138.569 24.2996 138.682 24.1958C138.796 24.092 138.947 23.9976 139.135 23.9126C139.324 23.8182 139.574 23.771 139.886 23.771C140.245 23.771 140.528 23.8654 140.735 24.0542C140.943 24.2336 141.047 24.4601 141.047 24.7339C141.047 28.189 140.929 31.1248 140.693 33.5415C140.457 35.9487 140.075 37.9076 139.546 39.418C139.017 40.9284 138.333 42.0234 137.493 42.7031C136.653 43.3828 135.633 43.7227 134.434 43.7227C133.887 43.7227 133.316 43.5999 132.721 43.3545C132.136 43.109 131.597 42.7928 131.107 42.4058C130.616 42.0282 130.21 41.6081 129.889 41.1455C129.577 40.6829 129.421 40.2393 129.421 39.8145C129.421 39.6729 129.497 39.5076 129.648 39.3188C129.799 39.13 129.983 38.946 130.2 38.7666C130.417 38.5872 130.644 38.4362 130.88 38.3135C131.116 38.1908 131.319 38.1294 131.489 38.1294C131.668 38.1294 131.819 38.2002 131.942 38.3418C132.065 38.4928 132.178 38.6769 132.282 38.894C132.395 39.1112 132.508 39.3472 132.622 39.6021C132.735 39.8664 132.877 40.1071 133.046 40.3242C133.216 40.5413 133.424 40.7207 133.67 40.8623C133.915 41.0133 134.222 41.0889 134.59 41.0889C136.648 41.0889 137.856 37.9453 138.215 31.6582C138.215 31.375 138.135 31.2334 137.974 31.2334C137.842 31.2334 137.738 31.2995 137.663 31.4316C136.775 32.6305 135.737 33.5321 134.547 34.1362C133.367 34.731 132.055 35.0283 130.611 35.0283C129.941 35.0283 129.322 34.9292 128.756 34.731C128.19 34.5233 127.699 34.2401 127.283 33.8813C126.877 33.5132 126.561 33.0789 126.335 32.5786C126.108 32.0688 125.995 31.5119 125.995 30.9077C125.995 30.313 126.099 29.7277 126.306 29.1519C126.523 28.5666 126.821 28.019 127.198 27.5093C127.585 26.9901 128.043 26.5133 128.572 26.0791C129.101 25.6449 129.676 25.272 130.299 24.9604C130.922 24.6395 131.579 24.394 132.268 24.2241C132.966 24.0448 133.679 23.9551 134.406 23.9551ZM131.05 32.4229C132.343 32.4229 133.528 32.0169 134.604 31.2051C135.68 30.3838 136.601 29.1943 137.365 27.6367C137.384 27.5801 137.398 27.5376 137.408 27.5093C137.417 27.4715 137.422 27.4338 137.422 27.396C137.422 27.3016 137.323 27.2025 137.125 27.0986C136.926 26.9948 136.667 26.9051 136.346 26.8296C136.025 26.7541 135.657 26.6927 135.241 26.6455C134.835 26.5889 134.425 26.5605 134.009 26.5605C133.339 26.5605 132.692 26.6738 132.069 26.9004C131.446 27.127 130.894 27.429 130.413 27.8066C129.931 28.1842 129.544 28.6138 129.252 29.0952C128.959 29.5767 128.813 30.077 128.813 30.5962C128.813 31.1532 129.016 31.5968 129.421 31.9272C129.837 32.2576 130.38 32.4229 131.05 32.4229ZM156.926 31.8989C157.2 31.6629 157.469 31.5449 157.733 31.5449C157.884 31.5449 158.021 31.5827 158.144 31.6582C158.267 31.7337 158.404 31.8517 158.555 32.0122C158.696 32.2293 158.795 32.4087 158.852 32.5503C158.918 32.6825 158.951 32.8146 158.951 32.9468C158.951 33.23 158.809 33.499 158.526 33.7539C158.073 34.1315 157.582 34.4714 157.054 34.7734C156.525 35.0661 155.973 35.3162 155.397 35.5239C154.821 35.7316 154.226 35.8874 153.613 35.9912C152.999 36.1045 152.39 36.1611 151.786 36.1611C151.021 36.1611 150.304 36.062 149.634 35.8638C148.963 35.675 148.364 35.4012 147.835 35.0425C147.316 34.6838 146.877 34.2542 146.518 33.7539C146.16 33.2441 145.905 32.673 145.754 32.0405C145.669 31.7762 145.589 31.6063 145.513 31.5308C145.447 31.4458 145.334 31.4033 145.173 31.4033C144.824 31.4033 144.555 31.3184 144.366 31.1484C144.177 30.9785 144.083 30.7331 144.083 30.4121C144.083 30.2799 144.092 30.195 144.111 30.1572L144.14 29.874C144.187 29.5342 144.276 29.2887 144.409 29.1377C144.55 28.9867 144.767 28.9111 145.06 28.9111H145.272C145.669 28.9111 145.947 28.7271 146.108 28.3589C146.4 27.7075 146.773 27.1128 147.226 26.5747C147.68 26.0366 148.189 25.5788 148.756 25.2012C149.322 24.8141 149.926 24.5168 150.568 24.3091C151.22 24.092 151.88 23.9834 152.551 23.9834C153.249 23.9834 153.901 24.0872 154.505 24.2949C155.118 24.4932 155.652 24.7716 156.105 25.1304C156.558 25.4891 156.912 25.9092 157.167 26.3906C157.431 26.8721 157.563 27.3913 157.563 27.9482C157.563 28.3353 157.488 28.6893 157.337 29.0103C157.186 29.3312 156.969 29.6144 156.685 29.8599C156.402 30.0959 156.058 30.2894 155.652 30.4404C155.255 30.5915 154.802 30.6906 154.292 30.7378L149.379 31.2334C149.19 31.2334 149.034 31.2806 148.912 31.375C148.798 31.4694 148.742 31.5968 148.742 31.7573C148.742 32.0028 148.831 32.2388 149.011 32.4653C149.199 32.6919 149.445 32.8949 149.747 33.0742C150.058 33.2441 150.412 33.381 150.809 33.4849C151.215 33.5887 151.63 33.6406 152.055 33.6406C152.461 33.6406 152.876 33.6029 153.301 33.5273C153.735 33.4424 154.16 33.3244 154.576 33.1733C155 33.0223 155.411 32.8429 155.808 32.6353C156.204 32.4181 156.577 32.1727 156.926 31.8989ZM153.768 28.2456C153.91 28.2173 154.033 28.1512 154.137 28.0474C154.24 27.9341 154.292 27.7972 154.292 27.6367C154.292 27.4951 154.24 27.363 154.137 27.2402C154.033 27.1175 153.891 27.009 153.712 26.9146C153.532 26.8107 153.325 26.7305 153.089 26.6738C152.853 26.6172 152.603 26.5889 152.338 26.5889C151.951 26.5889 151.555 26.6455 151.149 26.7588C150.743 26.8721 150.375 27.0231 150.044 27.2119C149.714 27.3913 149.445 27.5942 149.237 27.8208C149.03 28.0379 148.926 28.255 148.926 28.4722C148.926 28.6893 149.058 28.7979 149.322 28.7979C149.483 28.7979 149.742 28.779 150.101 28.7412C150.46 28.7035 150.856 28.661 151.29 28.6138C151.725 28.5571 152.164 28.4958 152.607 28.4297C153.051 28.3636 153.438 28.3022 153.768 28.2456ZM168.982 24.4082C168.633 24.4082 168.326 24.5026 168.062 24.6914C167.797 24.8708 167.571 25.1257 167.382 25.4561C167.193 25.777 167.037 26.1593 166.915 26.603C166.792 27.0373 166.693 27.514 166.617 28.0332C166.542 28.5524 166.49 29.0952 166.462 29.6616C166.433 30.228 166.419 30.7992 166.419 31.375C166.419 32.1302 166.447 32.876 166.504 33.6123C166.57 34.3392 166.603 35.0142 166.603 35.6372C166.603 36.0431 166.452 36.3594 166.15 36.5859C165.848 36.8219 165.418 36.9399 164.862 36.9399C164.758 36.9399 164.64 36.9305 164.508 36.9116C164.375 36.8927 164.248 36.855 164.125 36.7983C164.012 36.7417 163.908 36.6615 163.814 36.5576C163.729 36.4632 163.682 36.3311 163.672 36.1611C163.587 35.3304 163.464 34.4808 163.304 33.6123C163.143 32.7438 162.94 31.88 162.695 31.021C162.459 30.1525 162.171 29.2935 161.831 28.4438C161.501 27.5942 161.119 26.7635 160.684 25.9517C160.609 25.8101 160.543 25.6779 160.486 25.5552C160.439 25.4325 160.415 25.3145 160.415 25.2012C160.415 25.0596 160.477 24.9085 160.599 24.748C160.731 24.5781 160.892 24.4224 161.081 24.2808C161.279 24.1392 161.491 24.0259 161.718 23.9409C161.954 23.8465 162.181 23.7993 162.398 23.7993C162.756 23.7993 163.073 24.0495 163.346 24.5498C163.62 25.0407 163.875 25.8289 164.111 26.9146C164.158 27.1034 164.196 27.2355 164.224 27.311C164.253 27.3866 164.29 27.4243 164.338 27.4243C164.441 27.4243 164.508 27.2638 164.536 26.9429C164.649 26.0461 164.843 25.2767 165.116 24.6348C165.39 23.9834 165.73 23.45 166.136 23.0347C166.551 22.6099 167.023 22.2983 167.552 22.1001C168.09 21.9019 168.68 21.8027 169.322 21.8027C169.69 21.8027 170.063 21.8358 170.441 21.9019C170.818 21.9679 171.158 22.0671 171.46 22.1992C171.762 22.3314 172.008 22.4919 172.196 22.6807C172.385 22.8695 172.48 23.0819 172.48 23.3179C172.48 23.4878 172.442 23.6908 172.366 23.9268C172.3 24.1533 172.211 24.3752 172.097 24.5923C171.984 24.8 171.852 24.9793 171.701 25.1304C171.559 25.272 171.413 25.3428 171.262 25.3428C171.092 25.3428 170.927 25.2956 170.766 25.2012C170.606 25.0973 170.431 24.9888 170.242 24.8755C170.063 24.7622 169.87 24.6584 169.662 24.564C169.464 24.4601 169.237 24.4082 168.982 24.4082Z" fill="black"/>
<path d="M23.523 23.0547C25.0518 23.0547 25.4844 27.8499 26.6594 29.0771C27.8345 30.3044 30.0894 31.0297 30.0894 34.3147C30.0969 36.202 29.7299 37.4777 29.234 38.6394C28.7412 39.7936 28.1247 40.892 27.7149 42.0796C26.7417 44.9005 26.8652 48.1108 26.6594 51.0584C26.5828 52.1558 26.092 55.9604 24.0191 54.7731C23.3277 54.3768 23.2474 53.5177 23.2002 52.8228C22.9923 49.7628 23.1548 46.6114 23.523 43.5703C23.6668 42.3832 23.863 41.3049 24.1427 40.6571C24.9946 38.6839 26.6508 36.6577 26.3309 34.4119C26.0302 32.3016 24.3561 31.03 23.0368 31.0297C21.3961 31.0297 18.8481 35.0996 17.5991 36.7056C16.35 38.3116 14.6846 40.2556 13.4356 39.5161C12.1866 38.7766 15.101 34.6111 15.9337 33.4936C16.7664 32.3762 18.8242 29.6904 20.4915 28.0804C21.3962 27.2068 21.5508 26.3932 21.6527 25.4519C21.6527 25.4519 21.9943 23.0547 23.523 23.0547Z" fill="#F44336"/>
<path fill-rule="evenodd" clip-rule="evenodd" d="M15.6293 7.72239C21.7301 6.94076 38 6.5932 38 7.72239C38 11.1973 29.7933 15.8488 28.0077 18.613C26.2221 21.3773 24.2297 24.4097 21.6355 24.2591C19.0412 24.1086 18.3581 23.1622 17.3476 22.6382C16.9987 22.4573 16.6049 22.1895 16.1904 22.2352C14.6499 22.405 8.85579 25.4636 8.85579 25.4636C8.05481 25.8651 7.37763 28.1028 6.35771 26.6681C5.3378 25.2335 6.71209 14.0724 7.81554 11.9397C8.93743 9.77217 11.9116 8.19872 15.6293 7.72239ZM14.4413 11.7593C13.2538 11.7755 11.4819 12.7223 10.904 13.73C10.735 14.0248 10.5289 14.6438 10.3258 15.4936C9.87198 17.3927 9.50279 19.4207 9.52484 21.3773C11.0337 20.8886 13.1598 19.9083 14.1193 18.613C14.3565 18.2926 14.3211 17.6897 14.351 17.3176C14.5 15.4704 14.4501 13.61 14.4413 11.7593ZM21.6355 10.954C20.7894 10.8933 18.8801 10.8559 18.325 11.655C18.2268 11.7967 18.084 12.1858 17.9599 12.8321C17.7255 14.0533 17.6275 15.8328 17.7485 17.1756C17.8108 17.8665 17.9241 18.3775 18.0583 18.6593C18.6277 19.8543 20.6963 20.9709 22.0534 20.5217C24.4123 19.7407 23.7724 15.226 23.5188 13.5653C23.4116 12.8637 23.2513 11.4735 22.4747 11.11C22.3527 11.053 22.0693 10.9851 21.6355 10.954ZM31.7548 10.5548C32.1712 9.99964 27.508 9.94468 26.6804 10.5548C26.0569 11.4313 26.5258 13.4646 26.9723 14.3236C27.8708 13.7186 27.977 13.6351 28.8404 12.8321C29.7038 12.0291 31.3385 11.11 31.7548 10.5548Z" fill="#F44336"/>
</svg>
