<svg width="140" height="31" viewBox="0 0 140 31" fill="none" xmlns="http://www.w3.org/2000/svg">
<path d="M36.04 22H32.68V5.2H36.04V22ZM42.8866 22H39.5266V9.76H42.8866V22ZM43.0066 6.52C43.0066 7 42.8386 7.424 42.5026 7.792C42.1826 8.144 41.7506 8.32 41.2066 8.32C40.6626 8.32 40.2226 8.144 39.8866 7.792C39.5666 7.424 39.4066 7 39.4066 6.52C39.4066 6.04 39.5666 5.624 39.8866 5.272C40.2226 4.904 40.6626 4.72 41.2066 4.72C41.7346 4.72 42.1666 4.904 42.5026 5.272C42.8386 5.624 43.0066 6.04 43.0066 6.52ZM49.7275 22H46.3675V5.2H49.7275V22ZM62.9341 21.52H59.8141C57.5261 21.52 55.8301 21.112 54.7261 20.296C53.6381 19.464 53.0941 18.232 53.0941 16.6V9.52H56.4541V16.6C56.4541 17.752 56.7421 18.584 57.3181 19.096C57.8941 19.592 58.7261 19.84 59.8141 19.84H62.9341V9.52H66.2941V21.76C66.2941 22.512 66.1501 23.192 65.8621 23.8C65.5741 24.424 65.1421 24.96 64.5661 25.408C64.0061 25.856 63.2941 26.2 62.4301 26.44C61.5821 26.68 60.5901 26.8 59.4541 26.8C59.0701 26.8 58.6541 26.768 58.2061 26.704C57.7741 26.656 57.3341 26.568 56.8861 26.44C56.4381 26.328 55.9981 26.176 55.5661 25.984C55.1501 25.808 54.7661 25.6 54.4141 25.36L55.3741 23.92C55.9181 24.288 56.5261 24.576 57.1981 24.784C57.8701 25.008 58.5421 25.12 59.2141 25.12C60.4141 25.12 61.3341 24.848 61.9741 24.304C62.6141 23.76 62.9341 22.912 62.9341 21.76V21.52ZM79.1444 11.2H76.2644C75.1764 11.2 74.3444 11.496 73.7684 12.088C73.1924 12.664 72.9044 13.528 72.9044 14.68V22H69.5444V14.68C69.5444 13.048 70.0564 11.784 71.0804 10.888C72.1204 9.976 73.6084 9.52 75.5444 9.52H79.1444V11.2ZM87.0484 20.92C87.5604 20.92 88.0404 20.824 88.4884 20.632C88.9364 20.44 89.3284 20.144 89.6644 19.744C90.0004 19.328 90.2644 18.792 90.4564 18.136C90.6644 17.48 90.7684 16.688 90.7684 15.76C90.7684 14.832 90.6644 14.04 90.4564 13.384C90.2644 12.728 90.0004 12.2 89.6644 11.8C89.3284 11.384 88.9364 11.08 88.4884 10.888C88.0404 10.696 87.5604 10.6 87.0484 10.6C86.5364 10.6 86.0564 10.696 85.6084 10.888C85.1604 11.08 84.7684 11.384 84.4324 11.8C84.0964 12.2 83.8244 12.728 83.6164 13.384C83.4244 14.04 83.3284 14.832 83.3284 15.76C83.3284 16.688 83.4244 17.48 83.6164 18.136C83.8244 18.792 84.0964 19.328 84.4324 19.744C84.7684 20.144 85.1604 20.44 85.6084 20.632C86.0564 20.824 86.5364 20.92 87.0484 20.92ZM87.0484 9.04C88.1204 9.04 89.1044 9.192 90.0004 9.496C90.9124 9.784 91.6884 10.216 92.3284 10.792C92.9684 11.352 93.4644 12.056 93.8164 12.904C94.1844 13.736 94.3684 14.688 94.3684 15.76C94.3684 16.848 94.1844 17.808 93.8164 18.64C93.4644 19.472 92.9684 20.176 92.3284 20.752C91.6884 21.312 90.9124 21.736 90.0004 22.024C89.1044 22.328 88.1204 22.48 87.0484 22.48C85.9604 22.48 84.9684 22.328 84.0724 22.024C83.1764 21.736 82.4084 21.312 81.7684 20.752C81.1284 20.176 80.6244 19.472 80.2564 18.64C79.9044 17.808 79.7284 16.848 79.7284 15.76C79.7284 14.688 79.9044 13.736 80.2564 12.904C80.6244 12.056 81.1284 11.352 81.7684 10.792C82.4084 10.216 83.1764 9.784 84.0724 9.496C84.9684 9.192 85.9604 9.04 87.0484 9.04ZM103.853 11.2C102.701 11.2 101.789 11.56 101.117 12.28C100.461 12.984 100.133 14.064 100.133 15.52C100.133 16.976 100.461 18.064 101.117 18.784C101.789 19.488 102.701 19.84 103.853 19.84H106.853V11.2H103.853ZM110.213 21.76C110.213 22.512 110.069 23.192 109.781 23.8C109.493 24.424 109.061 24.96 108.485 25.408C107.925 25.856 107.213 26.2 106.349 26.44C105.501 26.68 104.509 26.8 103.373 26.8C102.989 26.8 102.573 26.768 102.125 26.704C101.693 26.656 101.253 26.568 100.805 26.44C100.357 26.328 99.9171 26.176 99.4851 25.984C99.0691 25.808 98.6851 25.6 98.3331 25.36L99.1731 23.92C99.7171 24.288 100.333 24.576 101.021 24.784C101.709 25.008 102.413 25.12 103.133 25.12C104.333 25.12 105.253 24.848 105.893 24.304C106.533 23.76 106.853 22.912 106.853 21.76V21.52H103.853C102.749 21.52 101.741 21.376 100.829 21.088C99.9331 20.8 99.1651 20.392 98.5251 19.864C97.8851 19.336 97.3891 18.704 97.0371 17.968C96.7011 17.232 96.5331 16.416 96.5331 15.52C96.5331 14.624 96.7011 13.808 97.0371 13.072C97.3891 12.336 97.8851 11.704 98.5251 11.176C99.1651 10.648 99.9331 10.24 100.829 9.952C101.741 9.664 102.749 9.52 103.853 9.52H110.213V21.76ZM120.763 20.8C121.547 20.8 122.275 20.664 122.947 20.392C123.635 20.12 124.307 19.736 124.963 19.24L125.923 20.68C125.619 20.952 125.259 21.2 124.843 21.424C124.443 21.648 124.003 21.84 123.523 22C123.059 22.144 122.571 22.256 122.059 22.336C121.547 22.432 121.035 22.48 120.523 22.48C119.387 22.48 118.347 22.328 117.403 22.024C116.475 21.736 115.683 21.312 115.027 20.752C114.371 20.176 113.859 19.472 113.491 18.64C113.139 17.808 112.963 16.848 112.963 15.76C112.963 14.688 113.131 13.736 113.467 12.904C113.819 12.056 114.299 11.352 114.907 10.792C115.531 10.216 116.267 9.784 117.115 9.496C117.963 9.192 118.899 9.04 119.923 9.04C120.883 9.04 121.787 9.184 122.635 9.472C123.483 9.76 124.219 10.184 124.843 10.744C125.467 11.288 125.963 11.952 126.331 12.736C126.699 13.52 126.883 14.408 126.883 15.4V17.08H116.635C116.827 18.408 117.283 19.36 118.003 19.936C118.739 20.512 119.659 20.8 120.763 20.8ZM119.923 10.6C119.459 10.6 119.027 10.688 118.627 10.864C118.227 11.04 117.875 11.32 117.571 11.704C117.283 12.088 117.043 12.584 116.851 13.192C116.675 13.8 116.579 14.536 116.563 15.4H123.283C123.283 14.568 123.187 13.848 122.995 13.24C122.803 12.632 122.547 12.136 122.227 11.752C121.923 11.352 121.563 11.064 121.147 10.888C120.747 10.696 120.339 10.6 119.923 10.6ZM139.121 11.2H136.241C135.153 11.2 134.321 11.496 133.745 12.088C133.169 12.664 132.881 13.528 132.881 14.68V22H129.521V14.68C129.521 13.048 130.033 11.784 131.057 10.888C132.097 9.976 133.585 9.52 135.521 9.52H139.121V11.2Z" fill="black"/>
<path d="M12 25.08C11.2988 25.08 10.6985 24.835 10.1991 24.345C9.6997 23.855 9.45 23.2596 9.45 22.5588C9.45 21.8578 9.6997 21.2578 10.1991 20.7588C10.6985 20.2596 11.2988 20.01 12 20.01L12.7425 19.2978C12.9075 19.1326 13.1016 19 13.3248 18.9C13.5478 18.8 13.7762 18.75 14.01 18.75C14.51 18.75 14.93 18.925 15.27 19.275C15.61 19.625 15.78 20.0473 15.78 20.5419V21.09C15.78 21.49 15.925 21.835 16.215 22.125C16.505 22.415 16.85 22.56 17.25 22.56C17.566 22.56 17.8505 22.4645 18.1035 22.2735C18.3563 22.0823 18.5354 21.8381 18.6408 21.5409L19.02 20.49C19.2 19.97 19.5004 19.5497 19.9212 19.2291C20.342 18.9087 20.8259 18.7485 21.3729 18.7485C21.6043 18.1695 21.785 17.56 21.915 16.92C22.045 16.28 22.11 15.63 22.11 14.97C22.11 13.09 21.645 11.385 20.715 9.855C19.785 8.325 18.56 7.11 17.04 6.21V7.38C17.04 8.073 16.7933 8.6663 16.2999 9.1599C15.8063 9.6533 15.213 9.9 14.52 9.9H13.26V12.45C13.26 12.79 13.135 13.085 12.885 13.335C12.635 13.585 12.34 13.71 12 13.71H10.74V15.8406C10.74 16.3002 10.5813 16.69 10.2639 17.01C9.9467 17.33 9.5554 17.49 9.09 17.49C8.81 17.49 8.545 17.425 8.295 17.295C8.045 17.165 7.84 16.99 7.68 16.77L5.6676 13.71H4.41V14.9607C4.41 15.6069 4.195 16.165 3.765 16.635C3.335 17.105 2.81 17.38 2.19 17.46C2.75 19.64 3.9375 21.455 5.7525 22.905C7.5675 24.355 9.65 25.08 12 25.08ZM12.0081 27C10.3533 27 8.7983 26.685 7.3431 26.055C5.8877 25.425 4.615 24.565 3.525 23.475C2.435 22.385 1.575 21.1116 0.945 19.6548C0.315 18.198 0 16.6414 0 14.985C0 13.3286 0.315 11.772 0.945 10.3152C1.575 8.8584 2.435 7.59 3.525 6.51C4.615 5.43 5.8884 4.575 7.3452 3.945C8.802 3.315 10.3586 3 12.015 3C13.6714 3 15.228 3.315 16.6848 3.945C18.1416 4.575 19.41 5.43 20.49 6.51C21.57 7.59 22.425 8.86 23.055 10.32C23.685 11.78 24 13.3373 24 14.9919C24 16.6467 23.685 18.2017 23.055 19.6569C22.425 21.1123 21.57 22.3832 20.49 23.4696C19.41 24.5558 18.14 25.4158 16.68 26.0496C15.22 26.6832 13.6627 27 12.0081 27Z" fill="#1E88E5"/>
</svg>
