<svg width="182" height="32" viewBox="0 0 182 32" fill="none" xmlns="http://www.w3.org/2000/svg">
<path d="M51.3 24H47.1V3H51.3V24ZM59.8582 24H55.6582V8.7H59.8582V24ZM60.0082 4.65C60.0082 5.25 59.7982 5.78 59.3782 6.24C58.9782 6.68 58.4382 6.9 57.7582 6.9C57.0782 6.9 56.5282 6.68 56.1082 6.24C55.7082 5.78 55.5082 5.25 55.5082 4.65C55.5082 4.05 55.7082 3.53 56.1082 3.09C56.5282 2.63 57.0782 2.4 57.7582 2.4C58.4182 2.4 58.9582 2.63 59.3782 3.09C59.7982 3.53 60.0082 4.05 60.0082 4.65ZM68.4094 24H64.2094V3H68.4094V24ZM84.9176 23.4H81.0176C78.1576 23.4 76.0376 22.89 74.6576 21.87C73.2976 20.83 72.6176 19.29 72.6176 17.25V8.4H76.8176V17.25C76.8176 18.69 77.1776 19.73 77.8976 20.37C78.6176 20.99 79.6576 21.3 81.0176 21.3H84.9176V8.4H89.1176V23.7C89.1176 24.64 88.9376 25.49 88.5776 26.25C88.2176 27.03 87.6776 27.7 86.9576 28.26C86.2576 28.82 85.3676 29.25 84.2876 29.55C83.2276 29.85 81.9876 30 80.5676 30C80.0876 30 79.5676 29.96 79.0076 29.88C78.4676 29.82 77.9176 29.71 77.3576 29.55C76.7976 29.41 76.2476 29.22 75.7076 28.98C75.1876 28.76 74.7076 28.5 74.2676 28.2L75.4676 26.4C76.1476 26.86 76.9076 27.22 77.7476 27.48C78.5876 27.76 79.4276 27.9 80.2676 27.9C81.7676 27.9 82.9176 27.56 83.7176 26.88C84.5176 26.2 84.9176 25.14 84.9176 23.7V23.4ZM105.18 10.5H101.58C100.22 10.5 99.1805 10.87 98.4605 11.61C97.7405 12.33 97.3805 13.41 97.3805 14.85V24H93.1805V14.85C93.1805 12.81 93.8205 11.23 95.1005 10.11C96.4005 8.97 98.2605 8.4 100.68 8.4H105.18V10.5ZM115.061 22.65C115.701 22.65 116.301 22.53 116.861 22.29C117.421 22.05 117.911 21.68 118.331 21.18C118.751 20.66 119.081 19.99 119.321 19.17C119.581 18.35 119.711 17.36 119.711 16.2C119.711 15.04 119.581 14.05 119.321 13.23C119.081 12.41 118.751 11.75 118.331 11.25C117.911 10.73 117.421 10.35 116.861 10.11C116.301 9.87 115.701 9.75 115.061 9.75C114.421 9.75 113.821 9.87 113.261 10.11C112.701 10.35 112.211 10.73 111.791 11.25C111.371 11.75 111.031 12.41 110.771 13.23C110.531 14.05 110.411 15.04 110.411 16.2C110.411 17.36 110.531 18.35 110.771 19.17C111.031 19.99 111.371 20.66 111.791 21.18C112.211 21.68 112.701 22.05 113.261 22.29C113.821 22.53 114.421 22.65 115.061 22.65ZM115.061 7.8C116.401 7.8 117.631 7.99 118.751 8.37C119.891 8.73 120.861 9.27 121.661 9.99C122.461 10.69 123.081 11.57 123.521 12.63C123.981 13.67 124.211 14.86 124.211 16.2C124.211 17.56 123.981 18.76 123.521 19.8C123.081 20.84 122.461 21.72 121.661 22.44C120.861 23.14 119.891 23.67 118.751 24.03C117.631 24.41 116.401 24.6 115.061 24.6C113.701 24.6 112.461 24.41 111.341 24.03C110.221 23.67 109.261 23.14 108.461 22.44C107.661 21.72 107.031 20.84 106.571 19.8C106.131 18.76 105.911 17.56 105.911 16.2C105.911 14.86 106.131 13.67 106.571 12.63C107.031 11.57 107.661 10.69 108.461 9.99C109.261 9.27 110.221 8.73 111.341 8.37C112.461 7.99 113.701 7.8 115.061 7.8ZM136.066 10.5C134.626 10.5 133.486 10.95 132.646 11.85C131.826 12.73 131.416 14.08 131.416 15.9C131.416 17.72 131.826 19.08 132.646 19.98C133.486 20.86 134.626 21.3 136.066 21.3H139.816V10.5H136.066ZM144.016 23.7C144.016 24.64 143.836 25.49 143.476 26.25C143.116 27.03 142.576 27.7 141.856 28.26C141.156 28.82 140.266 29.25 139.186 29.55C138.126 29.85 136.886 30 135.466 30C134.986 30 134.466 29.96 133.906 29.88C133.366 29.82 132.816 29.71 132.256 29.55C131.696 29.41 131.146 29.22 130.606 28.98C130.086 28.76 129.606 28.5 129.166 28.2L130.216 26.4C130.896 26.86 131.666 27.22 132.526 27.48C133.386 27.76 134.266 27.9 135.166 27.9C136.666 27.9 137.816 27.56 138.616 26.88C139.416 26.2 139.816 25.14 139.816 23.7V23.4H136.066C134.686 23.4 133.426 23.22 132.286 22.86C131.166 22.5 130.206 21.99 129.406 21.33C128.606 20.67 127.986 19.88 127.546 18.96C127.126 18.04 126.916 17.02 126.916 15.9C126.916 14.78 127.126 13.76 127.546 12.84C127.986 11.92 128.606 11.13 129.406 10.47C130.206 9.81 131.166 9.3 132.286 8.94C133.426 8.58 134.686 8.4 136.066 8.4H144.016V23.7ZM157.204 22.5C158.184 22.5 159.094 22.33 159.934 21.99C160.794 21.65 161.634 21.17 162.454 20.55L163.654 22.35C163.274 22.69 162.824 23 162.304 23.28C161.804 23.56 161.254 23.8 160.654 24C160.074 24.18 159.464 24.32 158.824 24.42C158.184 24.54 157.544 24.6 156.904 24.6C155.484 24.6 154.184 24.41 153.004 24.03C151.844 23.67 150.854 23.14 150.034 22.44C149.214 21.72 148.574 20.84 148.114 19.8C147.674 18.76 147.454 17.56 147.454 16.2C147.454 14.86 147.664 13.67 148.084 12.63C148.524 11.57 149.124 10.69 149.884 9.99C150.664 9.27 151.584 8.73 152.644 8.37C153.704 7.99 154.874 7.8 156.154 7.8C157.354 7.8 158.484 7.98 159.544 8.34C160.604 8.7 161.524 9.23 162.304 9.93C163.084 10.61 163.704 11.44 164.164 12.42C164.624 13.4 164.854 14.51 164.854 15.75V17.85H152.044C152.284 19.51 152.854 20.7 153.754 21.42C154.674 22.14 155.824 22.5 157.204 22.5ZM156.154 9.75C155.574 9.75 155.034 9.86 154.534 10.08C154.034 10.3 153.594 10.65 153.214 11.13C152.854 11.61 152.554 12.23 152.314 12.99C152.094 13.75 151.974 14.67 151.954 15.75H160.354C160.354 14.71 160.234 13.81 159.994 13.05C159.754 12.29 159.434 11.67 159.034 11.19C158.654 10.69 158.204 10.33 157.684 10.11C157.184 9.87 156.674 9.75 156.154 9.75ZM180.151 10.5H176.551C175.191 10.5 174.151 10.87 173.431 11.61C172.711 12.33 172.351 13.41 172.351 14.85V24H168.151V14.85C168.151 12.81 168.791 11.23 170.071 10.11C171.371 8.97 173.231 8.4 175.651 8.4H180.151V10.5Z" fill="black"/>
<path d="M16.8571 27.6C16.0224 27.6 15.3077 27.2937 14.7132 26.6812C14.1187 26.0687 13.8214 25.3245 13.8214 24.4485C13.8214 23.5723 14.1187 22.8222 14.7132 22.1985C15.3077 21.5745 16.0224 21.2625 16.8571 21.2625L17.7411 20.3722C17.9375 20.1658 18.1686 20 18.4343 19.875C18.6997 19.75 18.9717 19.6875 19.25 19.6875C19.8452 19.6875 20.3452 19.9062 20.75 20.3438C21.1547 20.7812 21.3571 21.3091 21.3571 21.9274V22.6125C21.3571 23.1125 21.5297 23.5437 21.875 23.9062C22.2202 24.2687 22.6309 24.45 23.1071 24.45C23.4833 24.45 23.822 24.3306 24.1232 24.0919C24.4242 23.8529 24.6374 23.5476 24.7628 23.1761L25.2143 21.8625C25.4286 21.2125 25.7862 20.6871 26.2871 20.2864C26.7881 19.8859 27.3642 19.6856 28.0153 19.6856C28.2908 18.9619 28.5059 18.2 28.6607 17.4C28.8155 16.6 28.8928 15.7875 28.8928 14.9625C28.8928 12.6125 28.3393 10.4812 27.2321 8.56875C26.125 6.65625 24.6667 5.1375 22.8571 4.0125V5.475C22.8571 6.34125 22.5634 7.08288 21.9761 7.69988C21.3884 8.31663 20.6821 8.625 19.8571 8.625H18.3571V11.8125C18.3571 12.2375 18.2083 12.6062 17.9107 12.9187C17.6131 13.2312 17.2619 13.3875 16.8571 13.3875H15.3571V16.0507C15.3571 16.6252 15.1682 17.1125 14.7903 17.5125C14.4127 17.9125 13.9469 18.1125 13.3928 18.1125C13.0595 18.1125 12.744 18.0312 12.4464 17.8687C12.1488 17.7062 11.9047 17.4875 11.7143 17.2125L9.31855 13.3875H7.82141V14.9509C7.82141 15.7586 7.56546 16.4563 7.05355 17.0438C6.54165 17.6313 5.91665 17.975 5.17855 18.075C5.84522 20.8 7.25891 23.0688 9.41963 24.8813C11.5803 26.6938 14.0595 27.6 16.8571 27.6ZM16.8668 30C14.8968 30 13.0456 29.6062 11.3132 28.8188C9.58058 28.0312 8.06546 26.9562 6.76784 25.5938C5.47022 24.2312 4.44641 22.6395 3.69641 20.8185C2.94641 18.9975 2.57141 17.0518 2.57141 14.9812C2.57141 12.9108 2.94641 10.965 3.69641 9.144C4.44641 7.323 5.47022 5.7375 6.76784 4.3875C8.06546 3.0375 9.58141 1.96875 11.3157 1.18125C13.05 0.39375 14.9031 0 16.875 0C18.8469 0 20.7 0.39375 22.4343 1.18125C24.1686 1.96875 25.6786 3.0375 26.9643 4.3875C28.25 5.7375 29.2678 7.325 30.0178 9.15C30.7678 10.975 31.1428 12.9216 31.1428 14.9899C31.1428 17.0584 30.7678 19.0021 30.0178 20.8211C29.2678 22.6404 28.25 24.229 26.9643 25.587C25.6786 26.9448 24.1667 28.0198 22.4286 28.812C20.6905 29.604 18.8365 30 16.8668 30Z" fill="#1E88E5"/>
</svg>
