<svg width="180" height="50" viewBox="0 0 180 50" fill="none" xmlns="http://www.w3.org/2000/svg">
<path d="M67.04 33H63.68V16.2H67.04V33ZM75.0866 33H71.7266V20.76H75.0866V33ZM75.2066 17.52C75.2066 18 75.0386 18.424 74.7026 18.792C74.3826 19.144 73.9506 19.32 73.4066 19.32C72.8626 19.32 72.4226 19.144 72.0866 18.792C71.7666 18.424 71.6066 18 71.6066 17.52C71.6066 17.04 71.7666 16.624 72.0866 16.272C72.4226 15.904 72.8626 15.72 73.4066 15.72C73.9346 15.72 74.3666 15.904 74.7026 16.272C75.0386 16.624 75.2066 17.04 75.2066 17.52ZM83.1275 33H79.7675V16.2H83.1275V33ZM97.5341 32.52H94.4141C92.1261 32.52 90.4301 32.112 89.3261 31.296C88.2381 30.464 87.6941 29.232 87.6941 27.6V20.52H91.0541V27.6C91.0541 28.752 91.3421 29.584 91.9181 30.096C92.4941 30.592 93.3261 30.84 94.4141 30.84H97.5341V20.52H100.894V32.76C100.894 33.512 100.75 34.192 100.462 34.8C100.174 35.424 99.7421 35.96 99.1661 36.408C98.6061 36.856 97.8941 37.2 97.0301 37.44C96.1821 37.68 95.1901 37.8 94.0541 37.8C93.6701 37.8 93.2541 37.768 92.8061 37.704C92.3741 37.656 91.9341 37.568 91.4861 37.44C91.0381 37.328 90.5981 37.176 90.1661 36.984C89.7501 36.808 89.3661 36.6 89.0141 36.36L89.9741 34.92C90.5181 35.288 91.1261 35.576 91.7981 35.784C92.4701 36.008 93.1421 36.12 93.8141 36.12C95.0141 36.12 95.9341 35.848 96.5741 35.304C97.2141 34.76 97.5341 33.912 97.5341 32.76V32.52ZM114.944 22.2H112.064C110.976 22.2 110.144 22.496 109.568 23.088C108.992 23.664 108.704 24.528 108.704 25.68V33H105.344V25.68C105.344 24.048 105.856 22.784 106.88 21.888C107.92 20.976 109.408 20.52 111.344 20.52H114.944V22.2ZM124.048 31.92C124.56 31.92 125.04 31.824 125.488 31.632C125.936 31.44 126.328 31.144 126.664 30.744C127 30.328 127.264 29.792 127.456 29.136C127.664 28.48 127.768 27.688 127.768 26.76C127.768 25.832 127.664 25.04 127.456 24.384C127.264 23.728 127 23.2 126.664 22.8C126.328 22.384 125.936 22.08 125.488 21.888C125.04 21.696 124.56 21.6 124.048 21.6C123.536 21.6 123.056 21.696 122.608 21.888C122.16 22.08 121.768 22.384 121.432 22.8C121.096 23.2 120.824 23.728 120.616 24.384C120.424 25.04 120.328 25.832 120.328 26.76C120.328 27.688 120.424 28.48 120.616 29.136C120.824 29.792 121.096 30.328 121.432 30.744C121.768 31.144 122.16 31.44 122.608 31.632C123.056 31.824 123.536 31.92 124.048 31.92ZM124.048 20.04C125.12 20.04 126.104 20.192 127 20.496C127.912 20.784 128.688 21.216 129.328 21.792C129.968 22.352 130.464 23.056 130.816 23.904C131.184 24.736 131.368 25.688 131.368 26.76C131.368 27.848 131.184 28.808 130.816 29.64C130.464 30.472 129.968 31.176 129.328 31.752C128.688 32.312 127.912 32.736 127 33.024C126.104 33.328 125.12 33.48 124.048 33.48C122.96 33.48 121.968 33.328 121.072 33.024C120.176 32.736 119.408 32.312 118.768 31.752C118.128 31.176 117.624 30.472 117.256 29.64C116.904 28.808 116.728 27.848 116.728 26.76C116.728 25.688 116.904 24.736 117.256 23.904C117.624 23.056 118.128 22.352 118.768 21.792C119.408 21.216 120.176 20.784 121.072 20.496C121.968 20.192 122.96 20.04 124.048 20.04ZM142.053 22.2C140.901 22.2 139.989 22.56 139.317 23.28C138.661 23.984 138.333 25.064 138.333 26.52C138.333 27.976 138.661 29.064 139.317 29.784C139.989 30.488 140.901 30.84 142.053 30.84H145.053V22.2H142.053ZM148.413 32.76C148.413 33.512 148.269 34.192 147.981 34.8C147.693 35.424 147.261 35.96 146.685 36.408C146.125 36.856 145.413 37.2 144.549 37.44C143.701 37.68 142.709 37.8 141.573 37.8C141.189 37.8 140.773 37.768 140.325 37.704C139.893 37.656 139.453 37.568 139.005 37.44C138.557 37.328 138.117 37.176 137.685 36.984C137.269 36.808 136.885 36.6 136.533 36.36L137.373 34.92C137.917 35.288 138.533 35.576 139.221 35.784C139.909 36.008 140.613 36.12 141.333 36.12C142.533 36.12 143.453 35.848 144.093 35.304C144.733 34.76 145.053 33.912 145.053 32.76V32.52H142.053C140.949 32.52 139.941 32.376 139.029 32.088C138.133 31.8 137.365 31.392 136.725 30.864C136.085 30.336 135.589 29.704 135.237 28.968C134.901 28.232 134.733 27.416 134.733 26.52C134.733 25.624 134.901 24.808 135.237 24.072C135.589 23.336 136.085 22.704 136.725 22.176C137.365 21.648 138.133 21.24 139.029 20.952C139.941 20.664 140.949 20.52 142.053 20.52H148.413V32.76ZM160.163 31.8C160.947 31.8 161.675 31.664 162.347 31.392C163.035 31.12 163.707 30.736 164.363 30.24L165.323 31.68C165.019 31.952 164.659 32.2 164.243 32.424C163.843 32.648 163.403 32.84 162.923 33C162.459 33.144 161.971 33.256 161.459 33.336C160.947 33.432 160.435 33.48 159.923 33.48C158.787 33.48 157.747 33.328 156.803 33.024C155.875 32.736 155.083 32.312 154.427 31.752C153.771 31.176 153.259 30.472 152.891 29.64C152.539 28.808 152.363 27.848 152.363 26.76C152.363 25.688 152.531 24.736 152.867 23.904C153.219 23.056 153.699 22.352 154.307 21.792C154.931 21.216 155.667 20.784 156.515 20.496C157.363 20.192 158.299 20.04 159.323 20.04C160.283 20.04 161.187 20.184 162.035 20.472C162.883 20.76 163.619 21.184 164.243 21.744C164.867 22.288 165.363 22.952 165.731 23.736C166.099 24.52 166.283 25.408 166.283 26.4V28.08H156.035C156.227 29.408 156.683 30.36 157.403 30.936C158.139 31.512 159.059 31.8 160.163 31.8ZM159.323 21.6C158.859 21.6 158.427 21.688 158.027 21.864C157.627 22.04 157.275 22.32 156.971 22.704C156.683 23.088 156.443 23.584 156.251 24.192C156.075 24.8 155.979 25.536 155.963 26.4H162.683C162.683 25.568 162.587 24.848 162.395 24.24C162.203 23.632 161.947 23.136 161.627 22.752C161.323 22.352 160.963 22.064 160.547 21.888C160.147 21.696 159.739 21.6 159.323 21.6ZM179.721 22.2H176.841C175.753 22.2 174.921 22.496 174.345 23.088C173.769 23.664 173.481 24.528 173.481 25.68V33H170.121V25.68C170.121 24.048 170.633 22.784 171.657 21.888C172.697 20.976 174.185 20.52 176.121 20.52H179.721V22.2Z" fill="white" fill-opacity="0.75"/>
<path d="M46.4882 14.3341C46.813 14.4215 47.1131 14.3821 47.3883 14.2158C47.6635 14.0498 47.8453 13.8011 47.9338 13.4697C48.0221 13.1385 47.9856 12.8335 47.8243 12.5548C47.6632 12.2761 47.42 12.093 47.0949 12.0055C46.77 11.9181 46.47 11.9576 46.1948 12.1238C45.9196 12.2899 45.7378 12.5386 45.6493 12.87C45.561 13.2012 45.5975 13.5061 45.7588 13.7849C45.9199 14.0636 46.163 14.2467 46.4882 14.3341ZM32.8145 38.0655C34.487 38.5155 36.0808 38.2936 37.5958 37.3999C39.1108 36.5063 40.0959 35.2069 40.5508 33.502L43.9632 20.715C44.6526 18.1318 44.3516 15.6974 43.0603 13.4119C41.769 11.1264 39.8563 9.64274 37.3222 8.96096L34.5473 8.21442C32.7988 7.74399 31.1434 7.94234 29.5811 8.80948C28.0188 9.67661 27.0033 10.9885 26.5345 12.7451C26.2174 13.9334 26.2366 15.1083 26.5921 16.2699C26.9475 17.4315 27.5885 18.4137 28.5149 19.2167C29.2224 19.8224 29.7089 20.5693 29.9743 21.4575C30.2398 22.3457 30.2519 23.2418 30.0106 24.146L28.3871 30.2295C27.9252 31.9603 28.1232 33.5847 28.981 35.103C29.8388 36.6212 31.1166 37.6087 32.8145 38.0655ZM43.4109 10.5991C43.7357 10.6865 44.0356 10.6477 44.3105 10.4827C44.5853 10.318 44.7667 10.0709 44.8546 9.74157L45.2682 8.19163C45.3561 7.86227 45.3198 7.55653 45.1593 7.27442C44.9991 6.99263 44.7563 6.80801 44.4312 6.72053C44.1063 6.63313 43.8065 6.67179 43.5317 6.83651C43.2568 7.0015 43.0754 7.24867 42.9875 7.57803L42.5739 9.12797C42.486 9.45733 42.5223 9.76294 42.6828 10.0448C42.8431 10.3268 43.0857 10.5116 43.4109 10.5991ZM33.4349 35.7406C32.3706 35.4543 31.571 34.8377 31.036 33.8908C30.501 32.9439 30.3783 31.928 30.6678 30.8431L32.2913 24.7596C32.6513 23.4103 32.6343 22.0718 32.2401 20.7439C31.8462 19.4161 31.12 18.2982 30.0616 17.3902C29.4923 16.8771 29.0948 16.2549 28.869 15.5236C28.6432 14.7923 28.6287 14.0577 28.8256 13.3199C29.1151 12.235 29.759 11.4253 30.7571 10.8909C31.7553 10.3565 32.8119 10.2393 33.9269 10.5393L36.7017 11.2859C38.6023 11.7972 40.0368 12.9099 41.0053 14.6241C41.9738 16.3382 42.1995 18.164 41.6825 20.1014L38.2701 32.8884C37.9806 33.9734 37.3684 34.7916 36.4336 35.343C35.4988 35.8944 34.4993 36.0269 33.4349 35.7406ZM39.2631 7.82193C39.588 7.90933 39.8878 7.87054 40.1627 7.70556C40.4375 7.54084 40.6189 7.29379 40.7068 6.96443L41.1204 5.41449C41.2083 5.08513 41.172 4.77939 41.0116 4.49728C40.8513 4.2155 40.6086 4.03087 40.2835 3.9434C39.9586 3.85599 39.6587 3.89465 39.3839 4.05938C39.109 4.22436 38.9276 4.47153 38.8397 4.80089L38.4261 6.35083C38.3382 6.6802 38.3745 6.9858 38.5351 7.26766C38.6953 7.5497 38.938 7.73446 39.2631 7.82193ZM34.7017 6.59473C35.0266 6.68213 35.3264 6.64335 35.6013 6.47836C35.8762 6.31364 36.0575 6.0666 36.1454 5.73723L36.7658 3.41232C36.8537 3.08296 36.8175 2.77722 36.657 2.49511C36.4967 2.21333 36.254 2.0287 35.9289 1.94123C35.604 1.85382 35.3042 1.89248 35.0293 2.05721C34.7544 2.22219 34.573 2.46936 34.4851 2.79872L33.8647 5.12364C33.7768 5.453 33.8131 5.75861 33.9737 6.04046C34.1339 6.3225 34.3766 6.50726 34.7017 6.59473ZM28.9642 6.71233C29.4933 6.85468 29.9918 6.78697 30.4598 6.50919C30.9278 6.23116 31.2336 5.82309 31.3772 5.28501L31.9976 2.9601C32.1412 2.42201 32.0781 1.91468 31.8082 1.43811C31.5382 0.961799 31.1387 0.652466 30.6095 0.510111C30.0804 0.367756 29.5819 0.435468 29.1139 0.713246C28.6459 0.991282 28.3401 1.39934 28.1965 1.93743L27.5761 4.26234C27.4325 4.80043 27.4956 5.30776 27.7655 5.78433C28.0355 6.26064 28.435 6.56997 28.9642 6.71233Z" fill="white" fill-opacity="0.75"/>
<path d="M3.51183 24.121C3.18695 24.2084 2.8869 24.169 2.61166 24.0027C2.3365 23.8367 2.15469 23.588 2.06624 23.2565C1.97787 22.9254 2.01436 22.6204 2.17572 22.3416C2.33684 22.063 2.57995 21.8799 2.90508 21.7924C3.22995 21.705 3.53001 21.7444 3.80524 21.9107C4.08041 22.0767 4.26222 22.3254 4.35066 22.6569C4.43904 22.988 4.40255 23.293 4.24118 23.5718C4.08007 23.8504 3.83695 24.0335 3.51183 24.121ZM17.1855 47.8524C15.513 48.3023 13.9192 48.0805 12.4042 47.1868C10.8892 46.2931 9.90415 44.9938 9.44916 43.2889L6.03679 30.5019C5.34742 27.9186 5.6484 25.4843 6.93971 23.1988C8.23103 20.9132 10.1437 19.4296 12.6778 18.7478L15.4527 18.0013C17.2012 17.5309 18.8566 17.7292 20.4189 18.5963C21.9812 19.4635 22.9967 20.7753 23.4655 22.5319C23.7826 23.7202 23.7634 24.8952 23.4079 26.0567C23.0525 27.2183 22.4115 28.2006 21.4851 29.0036C20.7776 29.6093 20.2911 30.3562 20.0257 31.2444C19.7602 32.1325 19.7481 33.0287 19.9894 33.9328L21.6129 40.0164C22.0747 41.7471 21.8768 43.3716 21.019 44.8898C20.1612 46.4081 18.8834 47.3956 17.1855 47.8524ZM6.58915 20.3859C6.26428 20.4733 5.96439 20.4345 5.6895 20.2696C5.41468 20.1048 5.23332 19.8578 5.14543 19.5284L4.73181 17.9785C4.64391 17.6491 4.6802 17.3434 4.84067 17.0613C5.00095 16.7795 5.24365 16.5949 5.56878 16.5074C5.89365 16.42 6.1935 16.4587 6.46832 16.6234C6.74321 16.7884 6.92461 17.0355 7.0125 17.3649L7.42612 18.9148C7.51402 19.2442 7.4777 19.5498 7.31716 19.8317C7.15695 20.1137 6.91428 20.2985 6.58915 20.3859ZM16.5651 45.5275C17.6294 45.2411 18.429 44.6245 18.964 43.6777C19.499 42.7308 19.6217 41.7149 19.3322 40.6299L17.7087 34.5464C17.3487 33.1972 17.3657 31.8587 17.7599 30.5308C18.1538 29.203 18.88 28.0851 19.9384 27.1771C20.5077 26.664 20.9052 26.0418 21.131 25.3105C21.3568 24.5791 21.3713 23.8446 21.1744 23.1068C20.8849 22.0218 20.241 21.2122 19.2429 20.6778C18.2447 20.1434 17.1881 20.0262 16.0731 20.3262L13.2983 21.0727C11.3977 21.5841 9.96316 22.6968 8.99468 24.4109C8.02619 26.1251 7.80046 27.9508 8.31749 29.8883L11.7299 42.6753C12.0194 43.7602 12.6316 44.5784 13.5664 45.1298C14.5012 45.6813 15.5007 45.8138 16.5651 45.5275ZM10.7369 17.6088C10.412 17.6962 10.1122 17.6574 9.83727 17.4924C9.56245 17.3277 9.38109 17.0807 9.2932 16.7513L8.87958 15.2014C8.79168 14.872 8.82797 14.5663 8.98844 14.2841C9.14872 14.0024 9.39142 13.8177 9.71655 13.7303C10.0414 13.6429 10.3413 13.6815 10.6161 13.8462C10.891 14.0112 11.0724 14.2584 11.1603 14.5878L11.5739 16.1377C11.6618 16.4671 11.6255 16.7727 11.4649 17.0545C11.3047 17.3366 11.062 17.5213 10.7369 17.6088ZM15.2983 16.3816C14.9734 16.469 14.6736 16.4302 14.3987 16.2652C14.1238 16.1005 13.9425 15.8535 13.8546 15.5241L13.2342 13.1992C13.1463 12.8698 13.1825 12.5641 13.343 12.282C13.5033 12.0002 13.746 11.8156 14.0711 11.7281C14.396 11.6407 14.6958 11.6793 14.9707 11.8441C15.2456 12.0091 15.427 12.2562 15.5149 12.5856L16.1353 14.9105C16.2232 15.2399 16.1869 15.5455 16.0263 15.8273C15.8661 16.1094 15.6234 16.2941 15.2983 16.3816ZM21.0358 16.4992C20.5067 16.6415 20.0082 16.5738 19.5402 16.2961C19.0722 16.018 18.7664 15.61 18.6228 15.0719L18.0024 12.747C17.8588 12.2089 17.9219 11.7015 18.1918 11.225C18.4618 10.7487 18.8614 10.4393 19.3905 10.297C19.9196 10.1546 20.4181 10.2223 20.8861 10.5001C21.3541 10.7781 21.6599 11.1862 21.8035 11.7243L22.4239 14.0492C22.5675 14.5873 22.5044 15.0946 22.2345 15.5712C21.9645 16.0475 21.565 16.3568 21.0358 16.4992Z" fill="white" fill-opacity="0.75"/>
</svg>
