<svg width="180" height="32" viewBox="0 0 180 32" fill="none" xmlns="http://www.w3.org/2000/svg">
<path d="M50.3 26H46.1V5H50.3V26ZM58.8582 26H54.6582V10.7H58.8582V26ZM59.0082 6.65C59.0082 7.25 58.7982 7.78 58.3782 8.24C57.9782 8.68 57.4382 8.9 56.7582 8.9C56.0782 8.9 55.5282 8.68 55.1082 8.24C54.7082 7.78 54.5082 7.25 54.5082 6.65C54.5082 6.05 54.7082 5.53 55.1082 5.09C55.5282 4.63 56.0782 4.4 56.7582 4.4C57.4182 4.4 57.9582 4.63 58.3782 5.09C58.7982 5.53 59.0082 6.05 59.0082 6.65ZM67.4094 26H63.2094V5H67.4094V26ZM83.9176 25.4H80.0176C77.1576 25.4 75.0376 24.89 73.6576 23.87C72.2976 22.83 71.6176 21.29 71.6176 19.25V10.4H75.8176V19.25C75.8176 20.69 76.1776 21.73 76.8976 22.37C77.6176 22.99 78.6576 23.3 80.0176 23.3H83.9176V10.4H88.1176V25.7C88.1176 26.64 87.9376 27.49 87.5776 28.25C87.2176 29.03 86.6776 29.7 85.9576 30.26C85.2576 30.82 84.3676 31.25 83.2876 31.55C82.2276 31.85 80.9876 32 79.5676 32C79.0876 32 78.5676 31.96 78.0076 31.88C77.4676 31.82 76.9176 31.71 76.3576 31.55C75.7976 31.41 75.2476 31.22 74.7076 30.98C74.1876 30.76 73.7076 30.5 73.2676 30.2L74.4676 28.4C75.1476 28.86 75.9076 29.22 76.7476 29.48C77.5876 29.76 78.4276 29.9 79.2676 29.9C80.7676 29.9 81.9176 29.56 82.7176 28.88C83.5176 28.2 83.9176 27.14 83.9176 25.7V25.4ZM104.18 12.5H100.58C99.2205 12.5 98.1805 12.87 97.4605 13.61C96.7405 14.33 96.3805 15.41 96.3805 16.85V26H92.1805V16.85C92.1805 14.81 92.8205 13.23 94.1005 12.11C95.4005 10.97 97.2605 10.4 99.6805 10.4H104.18V12.5ZM114.061 24.65C114.701 24.65 115.301 24.53 115.861 24.29C116.421 24.05 116.911 23.68 117.331 23.18C117.751 22.66 118.081 21.99 118.321 21.17C118.581 20.35 118.711 19.36 118.711 18.2C118.711 17.04 118.581 16.05 118.321 15.23C118.081 14.41 117.751 13.75 117.331 13.25C116.911 12.73 116.421 12.35 115.861 12.11C115.301 11.87 114.701 11.75 114.061 11.75C113.421 11.75 112.821 11.87 112.261 12.11C111.701 12.35 111.211 12.73 110.791 13.25C110.371 13.75 110.031 14.41 109.771 15.23C109.531 16.05 109.411 17.04 109.411 18.2C109.411 19.36 109.531 20.35 109.771 21.17C110.031 21.99 110.371 22.66 110.791 23.18C111.211 23.68 111.701 24.05 112.261 24.29C112.821 24.53 113.421 24.65 114.061 24.65ZM114.061 9.8C115.401 9.8 116.631 9.99 117.751 10.37C118.891 10.73 119.861 11.27 120.661 11.99C121.461 12.69 122.081 13.57 122.521 14.63C122.981 15.67 123.211 16.86 123.211 18.2C123.211 19.56 122.981 20.76 122.521 21.8C122.081 22.84 121.461 23.72 120.661 24.44C119.861 25.14 118.891 25.67 117.751 26.03C116.631 26.41 115.401 26.6 114.061 26.6C112.701 26.6 111.461 26.41 110.341 26.03C109.221 25.67 108.261 25.14 107.461 24.44C106.661 23.72 106.031 22.84 105.571 21.8C105.131 20.76 104.911 19.56 104.911 18.2C104.911 16.86 105.131 15.67 105.571 14.63C106.031 13.57 106.661 12.69 107.461 11.99C108.261 11.27 109.221 10.73 110.341 10.37C111.461 9.99 112.701 9.8 114.061 9.8ZM135.066 12.5C133.626 12.5 132.486 12.95 131.646 13.85C130.826 14.73 130.416 16.08 130.416 17.9C130.416 19.72 130.826 21.08 131.646 21.98C132.486 22.86 133.626 23.3 135.066 23.3H138.816V12.5H135.066ZM143.016 25.7C143.016 26.64 142.836 27.49 142.476 28.25C142.116 29.03 141.576 29.7 140.856 30.26C140.156 30.82 139.266 31.25 138.186 31.55C137.126 31.85 135.886 32 134.466 32C133.986 32 133.466 31.96 132.906 31.88C132.366 31.82 131.816 31.71 131.256 31.55C130.696 31.41 130.146 31.22 129.606 30.98C129.086 30.76 128.606 30.5 128.166 30.2L129.216 28.4C129.896 28.86 130.666 29.22 131.526 29.48C132.386 29.76 133.266 29.9 134.166 29.9C135.666 29.9 136.816 29.56 137.616 28.88C138.416 28.2 138.816 27.14 138.816 25.7V25.4H135.066C133.686 25.4 132.426 25.22 131.286 24.86C130.166 24.5 129.206 23.99 128.406 23.33C127.606 22.67 126.986 21.88 126.546 20.96C126.126 20.04 125.916 19.02 125.916 17.9C125.916 16.78 126.126 15.76 126.546 14.84C126.986 13.92 127.606 13.13 128.406 12.47C129.206 11.81 130.166 11.3 131.286 10.94C132.426 10.58 133.686 10.4 135.066 10.4H143.016V25.7ZM156.204 24.5C157.184 24.5 158.094 24.33 158.934 23.99C159.794 23.65 160.634 23.17 161.454 22.55L162.654 24.35C162.274 24.69 161.824 25 161.304 25.28C160.804 25.56 160.254 25.8 159.654 26C159.074 26.18 158.464 26.32 157.824 26.42C157.184 26.54 156.544 26.6 155.904 26.6C154.484 26.6 153.184 26.41 152.004 26.03C150.844 25.67 149.854 25.14 149.034 24.44C148.214 23.72 147.574 22.84 147.114 21.8C146.674 20.76 146.454 19.56 146.454 18.2C146.454 16.86 146.664 15.67 147.084 14.63C147.524 13.57 148.124 12.69 148.884 11.99C149.664 11.27 150.584 10.73 151.644 10.37C152.704 9.99 153.874 9.8 155.154 9.8C156.354 9.8 157.484 9.98 158.544 10.34C159.604 10.7 160.524 11.23 161.304 11.93C162.084 12.61 162.704 13.44 163.164 14.42C163.624 15.4 163.854 16.51 163.854 17.75V19.85H151.044C151.284 21.51 151.854 22.7 152.754 23.42C153.674 24.14 154.824 24.5 156.204 24.5ZM155.154 11.75C154.574 11.75 154.034 11.86 153.534 12.08C153.034 12.3 152.594 12.65 152.214 13.13C151.854 13.61 151.554 14.23 151.314 14.99C151.094 15.75 150.974 16.67 150.954 17.75H159.354C159.354 16.71 159.234 15.81 158.994 15.05C158.754 14.29 158.434 13.67 158.034 13.19C157.654 12.69 157.204 12.33 156.684 12.11C156.184 11.87 155.674 11.75 155.154 11.75ZM179.151 12.5H175.551C174.191 12.5 173.151 12.87 172.431 13.61C171.711 14.33 171.351 15.41 171.351 16.85V26H167.151V16.85C167.151 14.81 167.791 13.23 169.071 12.11C170.371 10.97 172.231 10.4 174.651 10.4H179.151V12.5Z" fill="black"/>
<path d="M15 28.6C14.1235 28.6 13.3731 28.2937 12.7489 27.6812C12.1246 27.0687 11.8125 26.3245 11.8125 25.4485C11.8125 24.5723 12.1246 23.8222 12.7489 23.1985C13.3731 22.5745 14.1235 22.2625 15 22.2625L15.9281 21.3722C16.1344 21.1657 16.377 21 16.656 20.875C16.9348 20.75 17.2203 20.6875 17.5125 20.6875C18.1375 20.6875 18.6625 20.9063 19.0875 21.3438C19.5125 21.7813 19.725 22.3091 19.725 22.9274V23.6125C19.725 24.1125 19.9063 24.5437 20.2688 24.9062C20.6313 25.2687 21.0625 25.45 21.5625 25.45C21.9575 25.45 22.3131 25.3306 22.6294 25.0919C22.9454 24.8529 23.1692 24.5476 23.301 24.1761L23.775 22.8625C24 22.2125 24.3755 21.6871 24.9015 21.2864C25.4275 20.8859 26.0324 20.6856 26.7161 20.6856C27.0054 19.9619 27.2312 19.2 27.3937 18.4C27.5562 17.6 27.6375 16.7875 27.6375 15.9625C27.6375 13.6125 27.0563 11.4812 25.8937 9.56875C24.7312 7.65625 23.2 6.1375 21.3 5.0125V6.475C21.3 7.34125 20.9916 8.08288 20.3749 8.69988C19.7579 9.31663 19.0162 9.625 18.15 9.625H16.575V12.8125C16.575 13.2375 16.4187 13.6062 16.1062 13.9187C15.7937 14.2312 15.425 14.3875 15 14.3875H13.425V17.0507C13.425 17.6252 13.2266 18.1125 12.8299 18.5125C12.4334 18.9125 11.9442 19.1125 11.3625 19.1125C11.0125 19.1125 10.6813 19.0312 10.3688 18.8687C10.0563 18.7062 9.8 18.4875 9.6 18.2125L7.0845 14.3875H5.5125V15.9509C5.5125 16.7586 5.24375 17.4563 4.70625 18.0438C4.16875 18.6313 3.5125 18.975 2.7375 19.075C3.4375 21.8 4.92188 24.0687 7.19063 25.8812C9.45938 27.6937 12.0625 28.6 15 28.6ZM15.0101 31C12.9416 31 10.9979 30.6062 9.17887 29.8187C7.35962 29.0312 5.76875 27.9562 4.40625 26.5937C3.04375 25.2312 1.96875 23.6395 1.18125 21.8185C0.39375 19.9975 0 18.0517 0 15.9812C0 13.9107 0.39375 11.965 1.18125 10.144C1.96875 8.323 3.04375 6.7375 4.40625 5.3875C5.76875 4.0375 7.3605 2.96875 9.1815 2.18125C11.0025 1.39375 12.9482 1 15.0187 1C17.0892 1 19.035 1.39375 20.856 2.18125C22.677 2.96875 24.2625 4.0375 25.6125 5.3875C26.9625 6.7375 28.0312 8.325 28.8187 10.15C29.6062 11.975 30 13.9216 30 15.9899C30 18.0584 29.6062 20.0021 28.8187 21.8211C28.0312 23.6404 26.9625 25.229 25.6125 26.587C24.2625 27.9448 22.675 29.0198 20.85 29.812C19.025 30.604 17.0784 31 15.0101 31Z" fill="#1E88E5"/>
</svg>
