<svg width="182" height="32" viewBox="0 0 182 32" fill="none" xmlns="http://www.w3.org/2000/svg">
<path d="M52.3 25H48.1V4H52.3V25ZM60.8582 25H56.6582V9.7H60.8582V25ZM61.0082 5.65C61.0082 6.25 60.7982 6.78 60.3782 7.24C59.9782 7.68 59.4382 7.9 58.7582 7.9C58.0782 7.9 57.5282 7.68 57.1082 7.24C56.7082 6.78 56.5082 6.25 56.5082 5.65C56.5082 5.05 56.7082 4.53 57.1082 4.09C57.5282 3.63 58.0782 3.4 58.7582 3.4C59.4182 3.4 59.9582 3.63 60.3782 4.09C60.7982 4.53 61.0082 5.05 61.0082 5.65ZM69.4094 25H65.2094V4H69.4094V25ZM85.9176 24.4H82.0176C79.1576 24.4 77.0376 23.89 75.6576 22.87C74.2976 21.83 73.6176 20.29 73.6176 18.25V9.4H77.8176V18.25C77.8176 19.69 78.1776 20.73 78.8976 21.37C79.6176 21.99 80.6576 22.3 82.0176 22.3H85.9176V9.4H90.1176V24.7C90.1176 25.64 89.9376 26.49 89.5776 27.25C89.2176 28.03 88.6776 28.7 87.9576 29.26C87.2576 29.82 86.3676 30.25 85.2876 30.55C84.2276 30.85 82.9876 31 81.5676 31C81.0876 31 80.5676 30.96 80.0076 30.88C79.4676 30.82 78.9176 30.71 78.3576 30.55C77.7976 30.41 77.2476 30.22 76.7076 29.98C76.1876 29.76 75.7076 29.5 75.2676 29.2L76.4676 27.4C77.1476 27.86 77.9076 28.22 78.7476 28.48C79.5876 28.76 80.4276 28.9 81.2676 28.9C82.7676 28.9 83.9176 28.56 84.7176 27.88C85.5176 27.2 85.9176 26.14 85.9176 24.7V24.4ZM106.18 11.5H102.58C101.22 11.5 100.18 11.87 99.4605 12.61C98.7405 13.33 98.3805 14.41 98.3805 15.85V25H94.1805V15.85C94.1805 13.81 94.8205 12.23 96.1005 11.11C97.4005 9.97 99.2605 9.4 101.68 9.4H106.18V11.5ZM116.061 23.65C116.701 23.65 117.301 23.53 117.861 23.29C118.421 23.05 118.911 22.68 119.331 22.18C119.751 21.66 120.081 20.99 120.321 20.17C120.581 19.35 120.711 18.36 120.711 17.2C120.711 16.04 120.581 15.05 120.321 14.23C120.081 13.41 119.751 12.75 119.331 12.25C118.911 11.73 118.421 11.35 117.861 11.11C117.301 10.87 116.701 10.75 116.061 10.75C115.421 10.75 114.821 10.87 114.261 11.11C113.701 11.35 113.211 11.73 112.791 12.25C112.371 12.75 112.031 13.41 111.771 14.23C111.531 15.05 111.411 16.04 111.411 17.2C111.411 18.36 111.531 19.35 111.771 20.17C112.031 20.99 112.371 21.66 112.791 22.18C113.211 22.68 113.701 23.05 114.261 23.29C114.821 23.53 115.421 23.65 116.061 23.65ZM116.061 8.8C117.401 8.8 118.631 8.99 119.751 9.37C120.891 9.73 121.861 10.27 122.661 10.99C123.461 11.69 124.081 12.57 124.521 13.63C124.981 14.67 125.211 15.86 125.211 17.2C125.211 18.56 124.981 19.76 124.521 20.8C124.081 21.84 123.461 22.72 122.661 23.44C121.861 24.14 120.891 24.67 119.751 25.03C118.631 25.41 117.401 25.6 116.061 25.6C114.701 25.6 113.461 25.41 112.341 25.03C111.221 24.67 110.261 24.14 109.461 23.44C108.661 22.72 108.031 21.84 107.571 20.8C107.131 19.76 106.911 18.56 106.911 17.2C106.911 15.86 107.131 14.67 107.571 13.63C108.031 12.57 108.661 11.69 109.461 10.99C110.261 10.27 111.221 9.73 112.341 9.37C113.461 8.99 114.701 8.8 116.061 8.8ZM137.066 11.5C135.626 11.5 134.486 11.95 133.646 12.85C132.826 13.73 132.416 15.08 132.416 16.9C132.416 18.72 132.826 20.08 133.646 20.98C134.486 21.86 135.626 22.3 137.066 22.3H140.816V11.5H137.066ZM145.016 24.7C145.016 25.64 144.836 26.49 144.476 27.25C144.116 28.03 143.576 28.7 142.856 29.26C142.156 29.82 141.266 30.25 140.186 30.55C139.126 30.85 137.886 31 136.466 31C135.986 31 135.466 30.96 134.906 30.88C134.366 30.82 133.816 30.71 133.256 30.55C132.696 30.41 132.146 30.22 131.606 29.98C131.086 29.76 130.606 29.5 130.166 29.2L131.216 27.4C131.896 27.86 132.666 28.22 133.526 28.48C134.386 28.76 135.266 28.9 136.166 28.9C137.666 28.9 138.816 28.56 139.616 27.88C140.416 27.2 140.816 26.14 140.816 24.7V24.4H137.066C135.686 24.4 134.426 24.22 133.286 23.86C132.166 23.5 131.206 22.99 130.406 22.33C129.606 21.67 128.986 20.88 128.546 19.96C128.126 19.04 127.916 18.02 127.916 16.9C127.916 15.78 128.126 14.76 128.546 13.84C128.986 12.92 129.606 12.13 130.406 11.47C131.206 10.81 132.166 10.3 133.286 9.94C134.426 9.58 135.686 9.4 137.066 9.4H145.016V24.7ZM158.204 23.5C159.184 23.5 160.094 23.33 160.934 22.99C161.794 22.65 162.634 22.17 163.454 21.55L164.654 23.35C164.274 23.69 163.824 24 163.304 24.28C162.804 24.56 162.254 24.8 161.654 25C161.074 25.18 160.464 25.32 159.824 25.42C159.184 25.54 158.544 25.6 157.904 25.6C156.484 25.6 155.184 25.41 154.004 25.03C152.844 24.67 151.854 24.14 151.034 23.44C150.214 22.72 149.574 21.84 149.114 20.8C148.674 19.76 148.454 18.56 148.454 17.2C148.454 15.86 148.664 14.67 149.084 13.63C149.524 12.57 150.124 11.69 150.884 10.99C151.664 10.27 152.584 9.73 153.644 9.37C154.704 8.99 155.874 8.8 157.154 8.8C158.354 8.8 159.484 8.98 160.544 9.34C161.604 9.7 162.524 10.23 163.304 10.93C164.084 11.61 164.704 12.44 165.164 13.42C165.624 14.4 165.854 15.51 165.854 16.75V18.85H153.044C153.284 20.51 153.854 21.7 154.754 22.42C155.674 23.14 156.824 23.5 158.204 23.5ZM157.154 10.75C156.574 10.75 156.034 10.86 155.534 11.08C155.034 11.3 154.594 11.65 154.214 12.13C153.854 12.61 153.554 13.23 153.314 13.99C153.094 14.75 152.974 15.67 152.954 16.75H161.354C161.354 15.71 161.234 14.81 160.994 14.05C160.754 13.29 160.434 12.67 160.034 12.19C159.654 11.69 159.204 11.33 158.684 11.11C158.184 10.87 157.674 10.75 157.154 10.75ZM181.151 11.5H177.551C176.191 11.5 175.151 11.87 174.431 12.61C173.711 13.33 173.351 14.41 173.351 15.85V25H169.151V15.85C169.151 13.81 169.791 12.23 171.071 11.11C172.371 9.97 174.231 9.4 176.651 9.4H181.151V11.5Z" fill="black"/>
<path d="M14.8571 28.6C14.0224 28.6 13.3077 28.2937 12.7132 27.6812C12.1187 27.0687 11.8214 26.3245 11.8214 25.4485C11.8214 24.5723 12.1187 23.8222 12.7132 23.1985C13.3077 22.5745 14.0224 22.2625 14.8571 22.2625L15.7411 21.3722C15.9375 21.1658 16.1686 21 16.4343 20.875C16.6997 20.75 16.9717 20.6875 17.25 20.6875C17.8452 20.6875 18.3452 20.9062 18.75 21.3438C19.1547 21.7812 19.3571 22.3091 19.3571 22.9274V23.6125C19.3571 24.1125 19.5297 24.5437 19.875 24.9062C20.2202 25.2687 20.6309 25.45 21.1071 25.45C21.4833 25.45 21.822 25.3306 22.1232 25.0919C22.4242 24.8529 22.6374 24.5476 22.7628 24.1761L23.2143 22.8625C23.4286 22.2125 23.7862 21.6871 24.2871 21.2864C24.7881 20.8859 25.3642 20.6856 26.0153 20.6856C26.2908 19.9619 26.5059 19.2 26.6607 18.4C26.8155 17.6 26.8928 16.7875 26.8928 15.9625C26.8928 13.6125 26.3393 11.4812 25.2321 9.56875C24.125 7.65625 22.6667 6.1375 20.8571 5.0125V6.475C20.8571 7.34125 20.5634 8.08288 19.9761 8.69988C19.3884 9.31663 18.6821 9.625 17.8571 9.625H16.3571V12.8125C16.3571 13.2375 16.2083 13.6062 15.9107 13.9187C15.6131 14.2312 15.2619 14.3875 14.8571 14.3875H13.3571V17.0507C13.3571 17.6252 13.1682 18.1125 12.7903 18.5125C12.4127 18.9125 11.9469 19.1125 11.3928 19.1125C11.0595 19.1125 10.744 19.0312 10.4464 18.8687C10.1488 18.7062 9.90475 18.4875 9.71427 18.2125L7.31855 14.3875H5.82141V15.9509C5.82141 16.7586 5.56546 17.4563 5.05355 18.0438C4.54165 18.6313 3.91665 18.975 3.17855 19.075C3.84522 21.8 5.25891 24.0688 7.41963 25.8813C9.58034 27.6938 12.0595 28.6 14.8571 28.6ZM14.8668 31C12.8968 31 11.0456 30.6062 9.3132 29.8188C7.58058 29.0312 6.06546 27.9562 4.76784 26.5938C3.47022 25.2312 2.44641 23.6395 1.69641 21.8185C0.946411 19.9975 0.571411 18.0518 0.571411 15.9812C0.571411 13.9108 0.946411 11.965 1.69641 10.144C2.44641 8.323 3.47022 6.7375 4.76784 5.3875C6.06546 4.0375 7.58141 2.96875 9.3157 2.18125C11.05 1.39375 12.9031 1 14.875 1C16.8469 1 18.7 1.39375 20.4343 2.18125C22.1686 2.96875 23.6786 4.0375 24.9643 5.3875C26.25 6.7375 27.2678 8.325 28.0178 10.15C28.7678 11.975 29.1428 13.9216 29.1428 15.9899C29.1428 18.0584 28.7678 20.0021 28.0178 21.8211C27.2678 23.6404 26.25 25.229 24.9643 26.587C23.6786 27.9448 22.1667 29.0198 20.4286 29.812C18.6905 30.604 16.8365 31 14.8668 31Z" fill="#1E88E5"/>
</svg>
